<svg class="customSvg" xmlns="http://www.w3.org/2000/svg" xmlns:xlink="http://www.w3.org/1999/xlink" width="24" height="24" viewBox="0, 0, 400,415.51020408163265" version="1.1"><g id="svgg">
                    <path id="path0" d="M200.700 97.747 C 200.095 98.267,199.600 98.987,199.600 99.347 C 199.600 99.706,199.420 100.000,199.200 100.000 C 198.980 100.000,198.800 100.360,198.800 100.800 C 198.800 101.240,198.620 101.600,198.400 101.600 C 198.180 101.600,198.000 101.960,198.000 102.400 C 198.000 102.840,197.820 103.200,197.600 103.200 C 197.380 103.200,197.200 103.549,197.200 103.976 C 197.200 104.403,197.020 104.864,196.800 105.000 C 196.580 105.136,196.400 105.687,196.400 106.224 C 196.400 106.761,196.220 107.200,196.000 107.200 C 195.780 107.200,195.600 107.560,195.600 108.000 C 195.600 108.440,195.420 108.800,195.200 108.800 C 194.980 108.800,194.800 109.160,194.800 109.600 C 194.800 110.040,194.620 110.400,194.400 110.400 C 194.180 110.400,194.000 110.760,194.000 111.200 C 194.000 111.640,193.820 112.000,193.600 112.000 C 193.380 112.000,193.200 112.450,193.200 113.000 C 193.200 113.550,193.020 114.000,192.800 114.000 C 192.580 114.000,192.400 114.360,192.400 114.800 C 192.400 115.240,192.220 115.600,192.000 115.600 C 191.780 115.600,191.600 115.960,191.600 116.400 C 191.600 116.840,191.420 117.200,191.200 117.200 C 190.980 117.200,190.800 117.560,190.800 118.000 C 190.800 118.440,190.620 118.800,190.400 118.800 C 190.180 118.800,190.000 119.228,190.000 119.751 C 190.000 120.274,189.767 120.895,189.482 121.132 C 189.197 121.368,188.714 122.200,188.408 122.981 C 188.101 123.761,187.704 124.400,187.525 124.400 C 187.346 124.400,187.200 124.645,187.200 124.944 C 187.200 125.243,186.636 126.638,185.947 128.044 C 185.258 129.450,184.517 131.050,184.301 131.600 C 184.084 132.150,183.748 132.913,183.553 133.295 C 183.359 133.677,183.200 134.262,183.200 134.595 C 183.200 134.928,183.020 135.200,182.800 135.200 C 182.580 135.200,182.400 135.560,182.400 136.000 C 182.400 136.440,182.220 136.800,182.000 136.800 C 181.780 136.800,181.600 137.160,181.600 137.600 C 181.600 138.040,181.420 138.400,181.200 138.400 C 180.980 138.400,180.800 138.760,180.800 139.200 C 180.800 139.640,180.620 140.000,180.400 140.000 C 180.180 140.000,180.000 140.360,180.000 140.800 C 180.000 141.240,179.820 141.600,179.600 141.600 C 179.380 141.600,179.200 141.960,179.200 142.400 C 179.200 142.840,179.020 143.200,178.800 143.200 C 178.580 143.200,178.400 143.549,178.400 143.976 C 178.400 144.403,178.220 144.864,178.000 145.000 C 177.780 145.136,177.600 145.687,177.600 146.224 C 177.600 146.761,177.420 147.200,177.200 147.200 C 176.980 147.200,176.800 147.560,176.800 148.000 C 176.800 148.440,176.620 148.800,176.400 148.800 C 176.180 148.800,176.000 149.160,176.000 149.600 C 176.000 150.040,175.820 150.400,175.600 150.400 C 175.380 150.400,175.200 150.749,175.200 151.176 C 175.200 151.603,175.020 152.064,174.800 152.200 C 174.580 152.336,174.400 152.797,174.400 153.224 C 174.400 153.651,174.220 154.000,174.000 154.000 C 173.780 154.000,173.600 154.360,173.600 154.800 C 173.600 155.240,173.420 155.600,173.200 155.600 C 172.980 155.600,172.800 155.960,172.800 156.400 C 172.800 156.840,172.620 157.200,172.400 157.200 C 172.180 157.200,172.000 157.740,172.000 158.400 C 172.000 159.060,171.820 159.600,171.600 159.600 C 171.380 159.600,171.200 159.960,171.200 160.400 C 171.200 160.840,171.020 161.200,170.800 161.200 C 170.580 161.200,170.400 161.517,170.400 161.905 C 170.400 162.293,169.920 162.968,169.334 163.405 C 168.748 163.842,168.041 164.425,167.763 164.700 C 167.485 164.975,166.884 165.200,166.429 165.200 C 165.973 165.200,165.600 165.380,165.600 165.600 C 165.600 165.820,165.150 166.000,164.600 166.000 C 164.050 166.000,163.600 166.180,163.600 166.400 C 163.600 166.620,163.240 166.800,162.800 166.800 C 162.360 166.800,162.000 166.980,162.000 167.200 C 162.000 167.420,161.640 167.600,161.200 167.600 C 160.760 167.600,160.400 167.780,160.400 168.000 C 160.400 168.220,160.040 168.400,159.600 168.400 C 159.160 168.400,158.800 168.580,158.800 168.800 C 158.800 169.020,158.361 169.200,157.824 169.200 C 157.287 169.200,156.736 169.380,156.600 169.600 C 156.464 169.820,156.003 170.000,155.576 170.000 C 155.149 170.000,154.800 170.180,154.800 170.400 C 154.800 170.620,154.440 170.800,154.000 170.800 C 153.560 170.800,153.200 170.980,153.200 171.200 C 153.200 171.420,152.840 171.600,152.400 171.600 C 151.960 171.600,151.600 171.780,151.600 172.000 C 151.600 172.220,151.240 172.400,150.800 172.400 C 150.360 172.400,150.000 172.580,150.000 172.800 C 150.000 173.020,149.676 173.200,149.280 173.200 C 148.884 173.200,148.389 173.352,148.180 173.538 C 147.971 173.723,146.585 174.380,145.100 174.998 C 143.615 175.615,142.400 176.273,142.400 176.460 C 142.400 176.647,142.040 176.800,141.600 176.800 C 141.160 176.800,140.800 176.980,140.800 177.200 C 140.800 177.420,140.440 177.600,140.000 177.600 C 139.560 177.600,139.200 177.780,139.200 178.000 C 139.200 178.220,138.840 178.400,138.400 178.400 C 137.960 178.400,137.600 178.580,137.600 178.800 C 137.600 179.020,137.240 179.200,136.800 179.200 C 136.360 179.200,136.000 179.380,136.000 179.600 C 136.000 179.820,135.561 180.000,135.024 180.000 C 134.487 180.000,133.936 180.180,133.800 180.400 C 133.664 180.620,133.203 180.800,132.776 180.800 C 132.349 180.800,132.000 180.980,132.000 181.200 C 132.000 181.420,131.640 181.600,131.200 181.600 C 130.760 181.600,130.400 181.780,130.400 182.000 C 130.400 182.220,130.051 182.400,129.624 182.400 C 129.197 182.400,128.736 182.580,128.600 182.800 C 128.464 183.020,128.003 183.200,127.576 183.200 C 127.149 183.200,126.800 183.380,126.800 183.600 C 126.800 183.820,126.440 184.000,126.000 184.000 C 125.560 184.000,125.200 184.180,125.200 184.400 C 125.200 184.620,124.840 184.800,124.400 184.800 C 123.960 184.800,123.600 184.980,123.600 185.200 C 123.600 185.420,123.328 185.600,122.995 185.600 C 122.407 185.600,121.982 185.767,120.105 186.738 C 119.613 186.992,118.938 187.200,118.605 187.200 C 118.272 187.200,118.000 187.380,118.000 187.600 C 118.000 187.820,117.640 188.000,117.200 188.000 C 116.760 188.000,116.400 188.180,116.400 188.400 C 116.400 188.620,116.040 188.800,115.600 188.800 C 115.160 188.800,114.800 188.980,114.800 189.200 C 114.800 189.420,114.440 189.600,114.000 189.600 C 113.560 189.600,113.200 189.780,113.200 190.000 C 113.200 190.220,112.840 190.400,112.400 190.400 C 111.960 190.400,111.600 190.580,111.600 190.800 C 111.600 191.020,111.285 191.201,110.900 191.201 C 110.515 191.202,109.611 191.562,108.890 192.001 C 108.170 192.441,107.332 192.800,107.028 192.800 C 104.563 192.800,101.879 195.767,103.060 197.186 C 103.823 198.103,108.362 200.400,109.410 200.400 C 109.735 200.400,110.000 200.580,110.000 200.800 C 110.000 201.020,110.360 201.200,110.800 201.200 C 111.240 201.200,111.600 201.380,111.600 201.600 C 111.600 201.820,111.949 202.000,112.376 202.000 C 112.803 202.000,113.264 202.180,113.400 202.400 C 113.536 202.620,114.004 202.800,114.440 202.800 C 114.877 202.800,115.620 203.160,116.092 203.600 C 116.564 204.040,117.367 204.400,117.875 204.400 C 118.384 204.400,118.800 204.580,118.800 204.800 C 118.800 205.020,119.160 205.200,119.600 205.200 C 120.040 205.200,120.400 205.380,120.400 205.600 C 120.400 205.820,120.760 206.000,121.200 206.000 C 121.640 206.000,122.000 206.180,122.000 206.400 C 122.000 206.620,122.360 206.800,122.800 206.800 C 123.240 206.800,123.600 206.980,123.600 207.200 C 123.600 207.420,123.949 207.600,124.376 207.600 C 124.803 207.600,125.264 207.780,125.400 208.000 C 125.536 208.220,125.997 208.400,126.424 208.400 C 126.851 208.400,127.200 208.580,127.200 208.800 C 127.200 209.020,127.639 209.200,128.176 209.200 C 128.713 209.200,129.264 209.380,129.400 209.600 C 129.536 209.820,129.914 210.000,130.240 210.000 C 130.567 210.000,131.220 210.360,131.692 210.800 C 132.164 211.240,132.967 211.600,133.475 211.600 C 133.984 211.600,134.400 211.780,134.400 212.000 C 134.400 212.220,134.760 212.400,135.200 212.400 C 135.640 212.400,136.000 212.580,136.000 212.800 C 136.000 213.020,136.360 213.200,136.800 213.200 C 137.240 213.200,137.600 213.380,137.600 213.600 C 137.600 213.820,137.960 214.000,138.400 214.000 C 138.840 214.000,139.200 214.180,139.200 214.400 C 139.200 214.620,139.740 214.800,140.400 214.800 C 141.060 214.800,141.600 214.980,141.600 215.200 C 141.600 215.420,141.960 215.600,142.400 215.600 C 142.840 215.600,143.200 215.780,143.200 216.000 C 143.200 216.220,143.560 216.400,144.000 216.400 C 144.440 216.400,144.800 216.580,144.800 216.800 C 144.800 217.020,145.160 217.200,145.600 217.200 C 146.040 217.200,146.400 217.372,146.400 217.581 C 146.400 217.791,147.075 218.263,147.900 218.631 C 148.725 218.999,150.514 219.817,151.875 220.450 C 153.236 221.082,154.631 221.600,154.975 221.600 C 155.319 221.600,155.600 221.780,155.600 222.000 C 155.600 222.220,155.960 222.400,156.400 222.400 C 156.840 222.400,157.200 222.580,157.200 222.800 C 157.200 223.020,157.560 223.200,158.000 223.200 C 158.440 223.200,158.800 223.380,158.800 223.600 C 158.800 223.820,159.160 224.000,159.600 224.000 C 160.040 224.000,160.400 224.180,160.400 224.400 C 160.400 224.620,160.760 224.800,161.200 224.800 C 161.640 224.800,162.000 224.980,162.000 225.200 C 162.000 225.420,162.272 225.600,162.605 225.600 C 162.938 225.600,163.568 225.780,164.005 226.000 C 164.442 226.220,165.158 226.580,165.595 226.800 C 166.032 227.020,166.639 227.200,166.944 227.200 C 167.758 227.200,170.400 229.745,170.400 230.528 C 170.400 230.898,170.580 231.200,170.800 231.200 C 171.020 231.200,171.200 231.560,171.200 232.000 C 171.200 232.440,171.380 232.800,171.600 232.800 C 171.820 232.800,172.000 233.160,172.000 233.600 C 172.000 234.040,172.180 234.400,172.400 234.400 C 172.620 234.400,172.800 234.858,172.800 235.417 C 172.800 235.976,173.160 236.820,173.600 237.292 C 174.040 237.764,174.400 238.567,174.400 239.075 C 174.400 239.584,174.580 240.000,174.800 240.000 C 175.020 240.000,175.200 240.349,175.200 240.776 C 175.200 241.203,175.380 241.664,175.600 241.800 C 175.820 241.936,176.000 242.397,176.000 242.824 C 176.000 243.251,176.180 243.600,176.400 243.600 C 176.620 243.600,176.800 243.960,176.800 244.400 C 176.800 244.840,176.980 245.200,177.200 245.200 C 177.420 245.200,177.600 245.560,177.600 246.000 C 177.600 246.440,177.780 246.800,178.000 246.800 C 178.220 246.800,178.404 247.205,178.409 247.700 C 178.414 248.195,178.770 249.050,179.200 249.600 C 179.630 250.150,179.986 251.005,179.991 251.500 C 179.996 251.995,180.135 252.401,180.300 252.403 C 180.659 252.407,181.600 254.344,181.600 255.080 C 181.600 255.366,181.780 255.600,182.000 255.600 C 182.220 255.600,182.400 255.960,182.400 256.400 C 182.400 256.840,182.580 257.200,182.800 257.200 C 183.020 257.200,183.200 257.560,183.200 258.000 C 183.200 258.440,183.380 258.800,183.600 258.800 C 183.820 258.800,184.000 259.149,184.000 259.576 C 184.000 260.003,184.180 260.464,184.400 260.600 C 184.620 260.736,184.799 261.152,184.799 261.524 C 184.797 262.402,189.218 271.200,189.662 271.200 C 189.848 271.200,190.000 271.560,190.000 272.000 C 190.000 272.440,190.180 272.800,190.400 272.800 C 190.620 272.800,190.800 273.239,190.800 273.776 C 190.800 274.313,190.980 274.864,191.200 275.000 C 191.420 275.136,191.600 275.597,191.600 276.024 C 191.600 276.451,191.780 276.800,192.000 276.800 C 192.220 276.800,192.400 277.160,192.400 277.600 C 192.400 278.040,192.580 278.400,192.800 278.400 C 193.020 278.400,193.200 278.760,193.200 279.200 C 193.200 279.640,193.380 280.000,193.600 280.000 C 193.820 280.000,194.000 280.349,194.000 280.776 C 194.000 281.203,194.180 281.664,194.400 281.800 C 194.620 281.936,194.800 282.397,194.800 282.824 C 194.800 283.251,194.980 283.600,195.200 283.600 C 195.420 283.600,195.600 283.960,195.600 284.400 C 195.600 284.840,195.780 285.200,196.000 285.200 C 196.220 285.200,196.400 285.560,196.400 286.000 C 196.400 286.440,196.580 286.800,196.800 286.800 C 197.020 286.800,197.200 287.340,197.200 288.000 C 197.200 288.660,197.380 289.200,197.600 289.200 C 197.820 289.200,198.000 289.560,198.000 290.000 C 198.000 290.440,198.180 290.800,198.400 290.800 C 198.620 290.800,198.800 291.160,198.800 291.600 C 198.800 292.040,198.980 292.400,199.200 292.400 C 199.420 292.400,199.600 292.683,199.600 293.029 C 199.600 293.920,200.593 294.800,201.600 294.800 C 202.607 294.800,203.600 293.920,203.600 293.029 C 203.600 292.683,203.780 292.400,204.000 292.400 C 204.220 292.400,204.400 292.040,204.400 291.600 C 204.400 291.160,204.580 290.800,204.800 290.800 C 205.020 290.800,205.200 290.440,205.200 290.000 C 205.200 289.560,205.380 289.200,205.600 289.200 C 205.820 289.200,206.000 288.840,206.000 288.400 C 206.000 287.960,206.180 287.600,206.400 287.600 C 206.620 287.600,206.800 287.240,206.800 286.800 C 206.800 286.360,206.980 286.000,207.200 286.000 C 207.420 286.000,207.600 285.640,207.600 285.200 C 207.600 284.760,207.780 284.400,208.000 284.400 C 208.220 284.400,208.400 283.950,208.400 283.400 C 208.400 282.850,208.580 282.400,208.800 282.400 C 209.020 282.400,209.200 281.944,209.200 281.387 C 209.200 280.831,209.470 280.271,209.800 280.145 C 210.130 280.018,210.400 279.574,210.400 279.157 C 210.400 278.741,210.580 278.400,210.800 278.400 C 211.020 278.400,211.200 278.159,211.200 277.864 C 211.200 277.569,212.100 275.561,213.200 273.400 C 214.300 271.239,215.200 269.141,215.200 268.736 C 215.200 268.331,215.380 268.000,215.600 268.000 C 215.820 268.000,216.000 267.640,216.000 267.200 C 216.000 266.760,216.180 266.400,216.400 266.400 C 216.620 266.400,216.800 266.135,216.800 265.812 C 216.800 265.489,217.160 264.583,217.600 263.800 C 218.040 263.017,218.400 262.111,218.400 261.788 C 218.400 261.465,218.580 261.200,218.800 261.200 C 219.020 261.200,219.200 260.840,219.200 260.400 C 219.200 259.960,219.380 259.600,219.600 259.600 C 219.820 259.600,220.000 259.240,220.000 258.800 C 220.000 258.360,220.180 258.000,220.400 258.000 C 220.620 258.000,220.800 257.460,220.800 256.800 C 220.800 256.140,220.935 255.599,221.100 255.597 C 221.459 255.593,222.400 253.656,222.400 252.920 C 222.400 252.634,222.580 252.400,222.800 252.400 C 223.020 252.400,223.200 252.040,223.200 251.600 C 223.200 251.160,223.380 250.800,223.600 250.800 C 223.820 250.800,224.000 250.440,224.000 250.000 C 224.000 249.560,224.180 249.200,224.400 249.200 C 224.620 249.200,224.800 248.840,224.800 248.400 C 224.800 247.960,224.980 247.600,225.200 247.600 C 225.420 247.600,225.600 247.161,225.600 246.624 C 225.600 246.087,225.780 245.536,226.000 245.400 C 226.220 245.264,226.400 244.803,226.400 244.376 C 226.400 243.949,226.580 243.600,226.800 243.600 C 227.020 243.600,227.200 243.240,227.200 242.800 C 227.200 242.360,227.380 242.000,227.600 242.000 C 227.820 242.000,228.000 241.640,228.000 241.200 C 228.000 240.760,228.180 240.400,228.400 240.400 C 228.620 240.400,228.800 239.950,228.800 239.400 C 228.800 238.850,228.980 238.400,229.200 238.400 C 229.420 238.400,229.600 238.040,229.600 237.600 C 229.600 237.160,229.760 236.800,229.956 236.800 C 230.310 236.800,233.200 231.051,233.200 230.345 C 233.200 229.647,235.972 227.200,236.763 227.200 C 237.197 227.200,237.664 227.020,237.800 226.800 C 237.936 226.580,238.397 226.400,238.824 226.400 C 239.251 226.400,239.600 226.220,239.600 226.000 C 239.600 225.780,239.960 225.600,240.400 225.600 C 240.840 225.600,241.200 225.420,241.200 225.200 C 241.200 224.980,241.560 224.800,242.000 224.800 C 242.440 224.800,242.800 224.620,242.800 224.400 C 242.800 224.180,243.160 224.000,243.600 224.000 C 244.040 224.000,244.400 223.820,244.400 223.600 C 244.400 223.380,244.760 223.200,245.200 223.200 C 245.640 223.200,246.000 223.020,246.000 222.800 C 246.000 222.580,246.279 222.400,246.619 222.400 C 246.960 222.400,247.984 222.040,248.894 221.600 C 249.805 221.160,250.786 220.800,251.075 220.800 C 251.364 220.800,251.600 220.620,251.600 220.400 C 251.600 220.180,251.835 220.000,252.121 220.000 C 252.917 220.000,256.800 217.978,256.800 217.564 C 256.800 217.364,257.160 217.200,257.600 217.200 C 258.040 217.200,258.400 217.020,258.400 216.800 C 258.400 216.580,258.858 216.400,259.417 216.400 C 259.976 216.400,260.820 216.040,261.292 215.600 C 261.764 215.160,262.567 214.800,263.075 214.800 C 263.584 214.800,264.000 214.620,264.000 214.400 C 264.000 214.180,264.360 214.000,264.800 214.000 C 265.240 214.000,265.600 213.820,265.600 213.600 C 265.600 213.380,265.960 213.200,266.400 213.200 C 266.840 213.200,267.200 213.020,267.200 212.800 C 267.200 212.580,267.560 212.400,268.000 212.400 C 268.440 212.400,268.800 212.220,268.800 212.000 C 268.800 211.780,269.340 211.600,270.000 211.600 C 270.660 211.600,271.200 211.420,271.200 211.200 C 271.200 210.980,271.470 210.800,271.800 210.800 C 272.130 210.800,272.400 210.620,272.400 210.400 C 272.400 210.180,272.839 210.000,273.376 210.000 C 273.913 210.000,274.464 209.820,274.600 209.600 C 274.736 209.380,275.197 209.200,275.624 209.200 C 276.051 209.200,276.400 209.020,276.400 208.800 C 276.400 208.580,276.760 208.400,277.200 208.400 C 277.640 208.400,278.000 208.220,278.000 208.000 C 278.000 207.780,278.360 207.600,278.800 207.600 C 279.240 207.600,279.600 207.420,279.600 207.200 C 279.600 206.980,279.960 206.800,280.400 206.800 C 280.840 206.800,281.200 206.620,281.200 206.400 C 281.200 206.180,281.472 206.000,281.805 206.000 C 282.138 206.000,282.768 205.820,283.205 205.600 C 283.642 205.380,284.358 205.020,284.795 204.800 C 285.232 204.580,285.862 204.400,286.195 204.400 C 286.528 204.400,286.800 204.220,286.800 204.000 C 286.800 203.780,287.160 203.600,287.600 203.600 C 288.040 203.600,288.400 203.420,288.400 203.200 C 288.400 202.980,288.760 202.800,289.200 202.800 C 289.640 202.800,290.000 202.620,290.000 202.400 C 290.000 202.180,290.253 202.000,290.562 202.000 C 290.871 202.000,291.906 201.614,292.862 201.143 C 293.818 200.672,294.960 200.151,295.400 199.985 C 301.242 197.785,302.654 195.601,299.200 194.104 C 298.320 193.723,297.600 193.274,297.600 193.106 C 297.600 192.938,297.328 192.800,296.995 192.800 C 296.662 192.800,296.032 192.620,295.595 192.400 C 295.158 192.180,294.442 191.820,294.005 191.600 C 293.568 191.380,292.938 191.200,292.605 191.200 C 292.272 191.200,292.000 191.020,292.000 190.800 C 292.000 190.580,291.651 190.400,291.224 190.400 C 290.797 190.400,290.336 190.220,290.200 190.000 C 290.064 189.780,289.603 189.600,289.176 189.600 C 288.749 189.600,288.400 189.420,288.400 189.200 C 288.400 188.980,288.040 188.800,287.600 188.800 C 287.160 188.800,286.800 188.620,286.800 188.400 C 286.800 188.180,286.440 188.000,286.000 188.000 C 285.560 188.000,285.200 187.820,285.200 187.600 C 285.200 187.380,284.840 187.200,284.400 187.200 C 283.960 187.200,283.600 187.020,283.600 186.800 C 283.600 186.580,283.240 186.400,282.800 186.400 C 282.360 186.400,282.000 186.220,282.000 186.000 C 282.000 185.780,281.460 185.600,280.800 185.600 C 280.140 185.600,279.600 185.420,279.600 185.200 C 279.600 184.980,279.240 184.800,278.800 184.800 C 278.360 184.800,278.000 184.620,278.000 184.400 C 278.000 184.180,277.640 184.000,277.200 184.000 C 276.760 184.000,276.400 183.820,276.400 183.600 C 276.400 183.380,276.040 183.200,275.600 183.200 C 275.160 183.200,274.800 183.020,274.800 182.800 C 274.800 182.580,274.440 182.400,274.000 182.400 C 273.560 182.400,273.200 182.220,273.200 182.000 C 273.200 181.780,272.750 181.600,272.200 181.600 C 271.650 181.600,271.200 181.420,271.200 181.200 C 271.200 180.980,270.840 180.800,270.400 180.800 C 269.960 180.800,269.600 180.620,269.600 180.400 C 269.600 180.180,269.060 180.000,268.400 180.000 C 267.740 180.000,267.200 179.820,267.200 179.600 C 267.200 179.380,266.840 179.200,266.400 179.200 C 265.960 179.200,265.600 179.020,265.600 178.800 C 265.600 178.580,265.240 178.400,264.800 178.400 C 264.360 178.400,264.000 178.220,264.000 178.000 C 264.000 177.780,263.640 177.600,263.200 177.600 C 262.760 177.600,262.400 177.420,262.400 177.200 C 262.400 176.980,262.040 176.800,261.600 176.800 C 261.160 176.800,260.800 176.652,260.800 176.472 C 260.800 176.292,259.315 175.463,257.500 174.631 C 255.685 173.799,253.140 172.597,251.844 171.959 C 250.548 171.322,249.243 170.800,248.944 170.800 C 248.645 170.800,248.400 170.620,248.400 170.400 C 248.400 170.180,248.040 170.000,247.600 170.000 C 247.160 170.000,246.800 169.820,246.800 169.600 C 246.800 169.380,246.440 169.200,246.000 169.200 C 245.560 169.200,245.200 169.020,245.200 168.800 C 245.200 168.580,244.737 168.400,244.171 168.400 C 243.606 168.400,242.864 168.121,242.523 167.780 C 242.182 167.440,241.385 167.057,240.752 166.930 C 240.118 166.804,239.600 166.543,239.600 166.350 C 239.600 166.158,239.240 166.000,238.800 166.000 C 238.360 166.000,238.000 165.820,238.000 165.600 C 238.000 165.380,237.585 165.200,237.078 165.200 C 236.147 165.200,233.200 162.835,233.200 162.088 C 233.200 161.359,230.320 155.600,229.956 155.600 C 229.760 155.600,229.600 155.150,229.600 154.600 C 229.600 154.050,229.420 153.600,229.200 153.600 C 228.980 153.600,228.800 153.251,228.800 152.824 C 228.800 152.397,228.620 151.936,228.400 151.800 C 228.180 151.664,228.000 151.113,228.000 150.576 C 228.000 150.039,227.854 149.600,227.675 149.600 C 227.496 149.600,227.102 148.970,226.800 148.200 C 226.498 147.430,226.104 146.800,225.925 146.800 C 225.746 146.800,225.600 146.350,225.600 145.800 C 225.600 145.250,225.420 144.800,225.200 144.800 C 224.980 144.800,224.800 144.440,224.800 144.000 C 224.800 143.560,224.620 143.200,224.400 143.200 C 224.180 143.200,224.000 142.840,224.000 142.400 C 224.000 141.960,223.820 141.600,223.600 141.600 C 223.380 141.600,223.200 141.240,223.200 140.800 C 223.200 140.360,223.020 140.000,222.800 140.000 C 222.580 140.000,222.400 139.460,222.400 138.800 C 222.400 138.140,222.220 137.600,222.000 137.600 C 221.780 137.600,221.600 137.240,221.600 136.800 C 221.600 136.360,221.420 136.000,221.200 136.000 C 220.980 136.000,220.800 135.640,220.800 135.200 C 220.800 134.760,220.620 134.400,220.400 134.400 C 220.180 134.400,220.000 134.040,220.000 133.600 C 220.000 133.160,219.820 132.800,219.600 132.800 C 219.380 132.800,219.200 132.451,219.200 132.024 C 219.200 131.597,219.020 131.136,218.800 131.000 C 218.580 130.864,218.400 130.403,218.400 129.976 C 218.400 129.549,218.220 129.200,218.000 129.200 C 217.780 129.200,217.600 128.964,217.600 128.675 C 217.600 128.184,216.454 125.471,215.585 123.905 C 215.373 123.523,215.200 122.938,215.200 122.605 C 215.200 122.272,215.020 122.000,214.800 122.000 C 214.580 122.000,214.400 121.640,214.400 121.200 C 214.400 120.760,214.220 120.400,214.000 120.400 C 213.780 120.400,213.600 120.040,213.600 119.600 C 213.600 119.160,213.420 118.800,213.200 118.800 C 212.980 118.800,212.800 118.440,212.800 118.000 C 212.800 117.560,212.620 117.200,212.400 117.200 C 212.180 117.200,212.000 116.840,212.000 116.400 C 212.000 115.960,211.820 115.600,211.600 115.600 C 211.380 115.600,211.198 115.285,211.195 114.900 C 211.193 114.515,210.743 113.417,210.195 112.459 C 209.648 111.502,209.200 110.467,209.200 110.159 C 209.200 109.852,209.020 109.600,208.800 109.600 C 208.580 109.600,208.400 109.240,208.400 108.800 C 208.400 108.360,208.220 108.000,208.000 108.000 C 207.780 108.000,207.600 107.640,207.600 107.200 C 207.600 106.760,207.420 106.400,207.200 106.400 C 206.980 106.400,206.800 106.040,206.800 105.600 C 206.800 105.160,206.620 104.800,206.400 104.800 C 206.180 104.800,206.000 104.476,206.000 104.080 C 206.000 103.186,205.106 101.207,204.700 101.203 C 204.535 101.201,204.400 100.851,204.400 100.424 C 204.400 99.997,204.220 99.536,204.000 99.400 C 203.780 99.264,203.600 98.868,203.600 98.520 C 203.600 97.965,202.552 96.847,202.000 96.813 C 201.890 96.806,201.305 97.227,200.700 97.747 " stroke="none" fill="#00f6ff" fill-rule="evenodd"></path><path id="path1" d="M200.700 97.747 C 200.095 98.267,199.600 98.987,199.600 99.347 C 199.600 99.706,199.420 100.000,199.200 100.000 C 198.980 100.000,198.800 100.360,198.800 100.800 C 198.800 101.240,198.620 101.600,198.400 101.600 C 198.180 101.600,198.000 101.960,198.000 102.400 C 198.000 102.840,197.820 103.200,197.600 103.200 C 197.380 103.200,197.200 103.549,197.200 103.976 C 197.200 104.403,197.020 104.864,196.800 105.000 C 196.580 105.136,196.400 105.687,196.400 106.224 C 196.400 106.761,196.220 107.200,196.000 107.200 C 195.780 107.200,195.600 107.560,195.600 108.000 C 195.600 108.440,195.420 108.800,195.200 108.800 C 194.980 108.800,194.800 109.160,194.800 109.600 C 194.800 110.040,194.620 110.400,194.400 110.400 C 194.180 110.400,194.000 110.760,194.000 111.200 C 194.000 111.640,193.820 112.000,193.600 112.000 C 193.380 112.000,193.200 112.450,193.200 113.000 C 193.200 113.550,193.020 114.000,192.800 114.000 C 192.580 114.000,192.400 114.360,192.400 114.800 C 192.400 115.240,192.220 115.600,192.000 115.600 C 191.780 115.600,191.600 115.960,191.600 116.400 C 191.600 116.840,191.420 117.200,191.200 117.200 C 190.980 117.200,190.800 117.560,190.800 118.000 C 190.800 118.440,190.620 118.800,190.400 118.800 C 190.180 118.800,190.000 119.228,190.000 119.751 C 190.000 120.274,189.767 120.895,189.482 121.132 C 189.197 121.368,188.714 122.200,188.408 122.981 C 188.101 123.761,187.704 124.400,187.525 124.400 C 187.346 124.400,187.200 124.645,187.200 124.944 C 187.200 125.243,186.636 126.638,185.947 128.044 C 185.258 129.450,184.517 131.050,184.301 131.600 C 184.084 132.150,183.748 132.913,183.553 133.295 C 183.359 133.677,183.200 134.262,183.200 134.595 C 183.200 134.928,183.020 135.200,182.800 135.200 C 182.580 135.200,182.400 135.560,182.400 136.000 C 182.400 136.440,182.220 136.800,182.000 136.800 C 181.780 136.800,181.600 137.160,181.600 137.600 C 181.600 138.040,181.420 138.400,181.200 138.400 C 180.980 138.400,180.800 138.760,180.800 139.200 C 180.800 139.640,180.620 140.000,180.400 140.000 C 180.180 140.000,180.000 140.360,180.000 140.800 C 180.000 141.240,179.820 141.600,179.600 141.600 C 179.380 141.600,179.200 141.960,179.200 142.400 C 179.200 142.840,179.020 143.200,178.800 143.200 C 178.580 143.200,178.400 143.549,178.400 143.976 C 178.400 144.403,178.220 144.864,178.000 145.000 C 177.780 145.136,177.600 145.687,177.600 146.224 C 177.600 146.761,177.420 147.200,177.200 147.200 C 176.980 147.200,176.800 147.560,176.800 148.000 C 176.800 148.440,176.620 148.800,176.400 148.800 C 176.180 148.800,176.000 149.160,176.000 149.600 C 176.000 150.040,175.820 150.400,175.600 150.400 C 175.380 150.400,175.200 150.749,175.200 151.176 C 175.200 151.603,175.020 152.064,174.800 152.200 C 174.580 152.336,174.400 152.797,174.400 153.224 C 174.400 153.651,174.220 154.000,174.000 154.000 C 173.780 154.000,173.600 154.360,173.600 154.800 C 173.600 155.240,173.420 155.600,173.200 155.600 C 172.980 155.600,172.800 155.960,172.800 156.400 C 172.800 156.840,172.620 157.200,172.400 157.200 C 172.180 157.200,172.000 157.740,172.000 158.400 C 172.000 159.060,171.820 159.600,171.600 159.600 C 171.380 159.600,171.200 159.960,171.200 160.400 C 171.200 160.840,171.020 161.200,170.800 161.200 C 170.580 161.200,170.400 161.517,170.400 161.905 C 170.400 162.293,169.920 162.968,169.334 163.405 C 168.748 163.842,168.041 164.425,167.763 164.700 C 167.485 164.975,166.884 165.200,166.429 165.200 C 165.973 165.200,165.600 165.380,165.600 165.600 C 165.600 165.820,165.150 166.000,164.600 166.000 C 164.050 166.000,163.600 166.180,163.600 166.400 C 163.600 166.620,163.240 166.800,162.800 166.800 C 162.360 166.800,162.000 166.980,162.000 167.200 C 162.000 167.420,161.640 167.600,161.200 167.600 C 160.760 167.600,160.400 167.780,160.400 168.000 C 160.400 168.220,160.040 168.400,159.600 168.400 C 159.160 168.400,158.800 168.580,158.800 168.800 C 158.800 169.020,158.361 169.200,157.824 169.200 C 157.287 169.200,156.736 169.380,156.600 169.600 C 156.464 169.820,156.003 170.000,155.576 170.000 C 155.149 170.000,154.800 170.180,154.800 170.400 C 154.800 170.620,154.440 170.800,154.000 170.800 C 153.560 170.800,153.200 170.980,153.200 171.200 C 153.200 171.420,152.840 171.600,152.400 171.600 C 151.960 171.600,151.600 171.780,151.600 172.000 C 151.600 172.220,151.240 172.400,150.800 172.400 C 150.360 172.400,150.000 172.580,150.000 172.800 C 150.000 173.020,149.676 173.200,149.280 173.200 C 148.884 173.200,148.389 173.352,148.180 173.538 C 147.971 173.723,146.585 174.380,145.100 174.998 C 143.615 175.615,142.400 176.273,142.400 176.460 C 142.400 176.647,142.040 176.800,141.600 176.800 C 141.160 176.800,140.800 176.980,140.800 177.200 C 140.800 177.420,140.440 177.600,140.000 177.600 C 139.560 177.600,139.200 177.780,139.200 178.000 C 139.200 178.220,138.840 178.400,138.400 178.400 C 137.960 178.400,137.600 178.580,137.600 178.800 C 137.600 179.020,137.240 179.200,136.800 179.200 C 136.360 179.200,136.000 179.380,136.000 179.600 C 136.000 179.820,135.561 180.000,135.024 180.000 C 134.487 180.000,133.936 180.180,133.800 180.400 C 133.664 180.620,133.203 180.800,132.776 180.800 C 132.349 180.800,132.000 180.980,132.000 181.200 C 132.000 181.420,131.640 181.600,131.200 181.600 C 130.760 181.600,130.400 181.780,130.400 182.000 C 130.400 182.220,130.051 182.400,129.624 182.400 C 129.197 182.400,128.736 182.580,128.600 182.800 C 128.464 183.020,128.003 183.200,127.576 183.200 C 127.149 183.200,126.800 183.380,126.800 183.600 C 126.800 183.820,126.440 184.000,126.000 184.000 C 125.560 184.000,125.200 184.180,125.200 184.400 C 125.200 184.620,124.840 184.800,124.400 184.800 C 123.960 184.800,123.600 184.980,123.600 185.200 C 123.600 185.420,123.328 185.600,122.995 185.600 C 122.407 185.600,121.982 185.767,120.105 186.738 C 119.613 186.992,118.938 187.200,118.605 187.200 C 118.272 187.200,118.000 187.380,118.000 187.600 C 118.000 187.820,117.640 188.000,117.200 188.000 C 116.760 188.000,116.400 188.180,116.400 188.400 C 116.400 188.620,116.040 188.800,115.600 188.800 C 115.160 188.800,114.800 188.980,114.800 189.200 C 114.800 189.420,114.440 189.600,114.000 189.600 C 113.560 189.600,113.200 189.780,113.200 190.000 C 113.200 190.220,112.840 190.400,112.400 190.400 C 111.960 190.400,111.600 190.580,111.600 190.800 C 111.600 191.020,111.285 191.201,110.900 191.201 C 110.515 191.202,109.611 191.562,108.890 192.001 C 108.170 192.441,107.332 192.800,107.028 192.800 C 104.563 192.800,101.879 195.767,103.060 197.186 C 103.823 198.103,108.362 200.400,109.410 200.400 C 109.735 200.400,110.000 200.580,110.000 200.800 C 110.000 201.020,110.360 201.200,110.800 201.200 C 111.240 201.200,111.600 201.380,111.600 201.600 C 111.600 201.820,111.949 202.000,112.376 202.000 C 112.803 202.000,113.264 202.180,113.400 202.400 C 113.536 202.620,114.004 202.800,114.440 202.800 C 114.877 202.800,115.620 203.160,116.092 203.600 C 116.564 204.040,117.367 204.400,117.875 204.400 C 118.384 204.400,118.800 204.580,118.800 204.800 C 118.800 205.020,119.160 205.200,119.600 205.200 C 120.040 205.200,120.400 205.380,120.400 205.600 C 120.400 205.820,120.760 206.000,121.200 206.000 C 121.640 206.000,122.000 206.180,122.000 206.400 C 122.000 206.620,122.360 206.800,122.800 206.800 C 123.240 206.800,123.600 206.980,123.600 207.200 C 123.600 207.420,123.949 207.600,124.376 207.600 C 124.803 207.600,125.264 207.780,125.400 208.000 C 125.536 208.220,125.997 208.400,126.424 208.400 C 126.851 208.400,127.200 208.580,127.200 208.800 C 127.200 209.020,127.639 209.200,128.176 209.200 C 128.713 209.200,129.264 209.380,129.400 209.600 C 129.536 209.820,129.914 210.000,130.240 210.000 C 130.567 210.000,131.220 210.360,131.692 210.800 C 132.164 211.240,132.967 211.600,133.475 211.600 C 133.984 211.600,134.400 211.780,134.400 212.000 C 134.400 212.220,134.760 212.400,135.200 212.400 C 135.640 212.400,136.000 212.580,136.000 212.800 C 136.000 213.020,136.360 213.200,136.800 213.200 C 137.240 213.200,137.600 213.380,137.600 213.600 C 137.600 213.820,137.960 214.000,138.400 214.000 C 138.840 214.000,139.200 214.180,139.200 214.400 C 139.200 214.620,139.740 214.800,140.400 214.800 C 141.060 214.800,141.600 214.980,141.600 215.200 C 141.600 215.420,141.960 215.600,142.400 215.600 C 142.840 215.600,143.200 215.780,143.200 216.000 C 143.200 216.220,143.560 216.400,144.000 216.400 C 144.440 216.400,144.800 216.580,144.800 216.800 C 144.800 217.020,145.160 217.200,145.600 217.200 C 146.040 217.200,146.400 217.372,146.400 217.581 C 146.400 217.791,147.075 218.263,147.900 218.631 C 148.725 218.999,150.514 219.817,151.875 220.450 C 153.236 221.082,154.631 221.600,154.975 221.600 C 155.319 221.600,155.600 221.780,155.600 222.000 C 155.600 222.220,155.960 222.400,156.400 222.400 C 156.840 222.400,157.200 222.580,157.200 222.800 C 157.200 223.020,157.560 223.200,158.000 223.200 C 158.440 223.200,158.800 223.380,158.800 223.600 C 158.800 223.820,159.160 224.000,159.600 224.000 C 160.040 224.000,160.400 224.180,160.400 224.400 C 160.400 224.620,160.760 224.800,161.200 224.800 C 161.640 224.800,162.000 224.980,162.000 225.200 C 162.000 225.420,162.272 225.600,162.605 225.600 C 162.938 225.600,163.568 225.780,164.005 226.000 C 164.442 226.220,165.158 226.580,165.595 226.800 C 166.032 227.020,166.639 227.200,166.944 227.200 C 167.758 227.200,170.400 229.745,170.400 230.528 C 170.400 230.898,170.580 231.200,170.800 231.200 C 171.020 231.200,171.200 231.560,171.200 232.000 C 171.200 232.440,171.380 232.800,171.600 232.800 C 171.820 232.800,172.000 233.160,172.000 233.600 C 172.000 234.040,172.180 234.400,172.400 234.400 C 172.620 234.400,172.800 234.858,172.800 235.417 C 172.800 235.976,173.160 236.820,173.600 237.292 C 174.040 237.764,174.400 238.567,174.400 239.075 C 174.400 239.584,174.580 240.000,174.800 240.000 C 175.020 240.000,175.200 240.349,175.200 240.776 C 175.200 241.203,175.380 241.664,175.600 241.800 C 175.820 241.936,176.000 242.397,176.000 242.824 C 176.000 243.251,176.180 243.600,176.400 243.600 C 176.620 243.600,176.800 243.960,176.800 244.400 C 176.800 244.840,176.980 245.200,177.200 245.200 C 177.420 245.200,177.600 245.560,177.600 246.000 C 177.600 246.440,177.780 246.800,178.000 246.800 C 178.220 246.800,178.404 247.205,178.409 247.700 C 178.414 248.195,178.770 249.050,179.200 249.600 C 179.630 250.150,179.986 251.005,179.991 251.500 C 179.996 251.995,180.135 252.401,180.300 252.403 C 180.659 252.407,181.600 254.344,181.600 255.080 C 181.600 255.366,181.780 255.600,182.000 255.600 C 182.220 255.600,182.400 255.960,182.400 256.400 C 182.400 256.840,182.580 257.200,182.800 257.200 C 183.020 257.200,183.200 257.560,183.200 258.000 C 183.200 258.440,183.380 258.800,183.600 258.800 C 183.820 258.800,184.000 259.149,184.000 259.576 C 184.000 260.003,184.180 260.464,184.400 260.600 C 184.620 260.736,184.799 261.152,184.799 261.524 C 184.797 262.402,189.218 271.200,189.662 271.200 C 189.848 271.200,190.000 271.560,190.000 272.000 C 190.000 272.440,190.180 272.800,190.400 272.800 C 190.620 272.800,190.800 273.239,190.800 273.776 C 190.800 274.313,190.980 274.864,191.200 275.000 C 191.420 275.136,191.600 275.597,191.600 276.024 C 191.600 276.451,191.780 276.800,192.000 276.800 C 192.220 276.800,192.400 277.160,192.400 277.600 C 192.400 278.040,192.580 278.400,192.800 278.400 C 193.020 278.400,193.200 278.760,193.200 279.200 C 193.200 279.640,193.380 280.000,193.600 280.000 C 193.820 280.000,194.000 280.349,194.000 280.776 C 194.000 281.203,194.180 281.664,194.400 281.800 C 194.620 281.936,194.800 282.397,194.800 282.824 C 194.800 283.251,194.980 283.600,195.200 283.600 C 195.420 283.600,195.600 283.960,195.600 284.400 C 195.600 284.840,195.780 285.200,196.000 285.200 C 196.220 285.200,196.400 285.560,196.400 286.000 C 196.400 286.440,196.580 286.800,196.800 286.800 C 197.020 286.800,197.200 287.340,197.200 288.000 C 197.200 288.660,197.380 289.200,197.600 289.200 C 197.820 289.200,198.000 289.560,198.000 290.000 C 198.000 290.440,198.180 290.800,198.400 290.800 C 198.620 290.800,198.800 291.160,198.800 291.600 C 198.800 292.040,198.980 292.400,199.200 292.400 C 199.420 292.400,199.600 292.683,199.600 293.029 C 199.600 293.920,200.593 294.800,201.600 294.800 C 202.607 294.800,203.600 293.920,203.600 293.029 C 203.600 292.683,203.780 292.400,204.000 292.400 C 204.220 292.400,204.400 292.040,204.400 291.600 C 204.400 291.160,204.580 290.800,204.800 290.800 C 205.020 290.800,205.200 290.440,205.200 290.000 C 205.200 289.560,205.380 289.200,205.600 289.200 C 205.820 289.200,206.000 288.840,206.000 288.400 C 206.000 287.960,206.180 287.600,206.400 287.600 C 206.620 287.600,206.800 287.240,206.800 286.800 C 206.800 286.360,206.980 286.000,207.200 286.000 C 207.420 286.000,207.600 285.640,207.600 285.200 C 207.600 284.760,207.780 284.400,208.000 284.400 C 208.220 284.400,208.400 283.950,208.400 283.400 C 208.400 282.850,208.580 282.400,208.800 282.400 C 209.020 282.400,209.200 281.944,209.200 281.387 C 209.200 280.831,209.470 280.271,209.800 280.145 C 210.130 280.018,210.400 279.574,210.400 279.157 C 210.400 278.741,210.580 278.400,210.800 278.400 C 211.020 278.400,211.200 278.159,211.200 277.864 C 211.200 277.569,212.100 275.561,213.200 273.400 C 214.300 271.239,215.200 269.141,215.200 268.736 C 215.200 268.331,215.380 268.000,215.600 268.000 C 215.820 268.000,216.000 267.640,216.000 267.200 C 216.000 266.760,216.180 266.400,216.400 266.400 C 216.620 266.400,216.800 266.135,216.800 265.812 C 216.800 265.489,217.160 264.583,217.600 263.800 C 218.040 263.017,218.400 262.111,218.400 261.788 C 218.400 261.465,218.580 261.200,218.800 261.200 C 219.020 261.200,219.200 260.840,219.200 260.400 C 219.200 259.960,219.380 259.600,219.600 259.600 C 219.820 259.600,220.000 259.240,220.000 258.800 C 220.000 258.360,220.180 258.000,220.400 258.000 C 220.620 258.000,220.800 257.460,220.800 256.800 C 220.800 256.140,220.935 255.599,221.100 255.597 C 221.459 255.593,222.400 253.656,222.400 252.920 C 222.400 252.634,222.580 252.400,222.800 252.400 C 223.020 252.400,223.200 252.040,223.200 251.600 C 223.200 251.160,223.380 250.800,223.600 250.800 C 223.820 250.800,224.000 250.440,224.000 250.000 C 224.000 249.560,224.180 249.200,224.400 249.200 C 224.620 249.200,224.800 248.840,224.800 248.400 C 224.800 247.960,224.980 247.600,225.200 247.600 C 225.420 247.600,225.600 247.161,225.600 246.624 C 225.600 246.087,225.780 245.536,226.000 245.400 C 226.220 245.264,226.400 244.803,226.400 244.376 C 226.400 243.949,226.580 243.600,226.800 243.600 C 227.020 243.600,227.200 243.240,227.200 242.800 C 227.200 242.360,227.380 242.000,227.600 242.000 C 227.820 242.000,228.000 241.640,228.000 241.200 C 228.000 240.760,228.180 240.400,228.400 240.400 C 228.620 240.400,228.800 239.950,228.800 239.400 C 228.800 238.850,228.980 238.400,229.200 238.400 C 229.420 238.400,229.600 238.040,229.600 237.600 C 229.600 237.160,229.760 236.800,229.956 236.800 C 230.310 236.800,233.200 231.051,233.200 230.345 C 233.200 229.647,235.972 227.200,236.763 227.200 C 237.197 227.200,237.664 227.020,237.800 226.800 C 237.936 226.580,238.397 226.400,238.824 226.400 C 239.251 226.400,239.600 226.220,239.600 226.000 C 239.600 225.780,239.960 225.600,240.400 225.600 C 240.840 225.600,241.200 225.420,241.200 225.200 C 241.200 224.980,241.560 224.800,242.000 224.800 C 242.440 224.800,242.800 224.620,242.800 224.400 C 242.800 224.180,243.160 224.000,243.600 224.000 C 244.040 224.000,244.400 223.820,244.400 223.600 C 244.400 223.380,244.760 223.200,245.200 223.200 C 245.640 223.200,246.000 223.020,246.000 222.800 C 246.000 222.580,246.279 222.400,246.619 222.400 C 246.960 222.400,247.984 222.040,248.894 221.600 C 249.805 221.160,250.786 220.800,251.075 220.800 C 251.364 220.800,251.600 220.620,251.600 220.400 C 251.600 220.180,251.835 220.000,252.121 220.000 C 252.917 220.000,256.800 217.978,256.800 217.564 C 256.800 217.364,257.160 217.200,257.600 217.200 C 258.040 217.200,258.400 217.020,258.400 216.800 C 258.400 216.580,258.858 216.400,259.417 216.400 C 259.976 216.400,260.820 216.040,261.292 215.600 C 261.764 215.160,262.567 214.800,263.075 214.800 C 263.584 214.800,264.000 214.620,264.000 214.400 C 264.000 214.180,264.360 214.000,264.800 214.000 C 265.240 214.000,265.600 213.820,265.600 213.600 C 265.600 213.380,265.960 213.200,266.400 213.200 C 266.840 213.200,267.200 213.020,267.200 212.800 C 267.200 212.580,267.560 212.400,268.000 212.400 C 268.440 212.400,268.800 212.220,268.800 212.000 C 268.800 211.780,269.340 211.600,270.000 211.600 C 270.660 211.600,271.200 211.420,271.200 211.200 C 271.200 210.980,271.470 210.800,271.800 210.800 C 272.130 210.800,272.400 210.620,272.400 210.400 C 272.400 210.180,272.839 210.000,273.376 210.000 C 273.913 210.000,274.464 209.820,274.600 209.600 C 274.736 209.380,275.197 209.200,275.624 209.200 C 276.051 209.200,276.400 209.020,276.400 208.800 C 276.400 208.580,276.760 208.400,277.200 208.400 C 277.640 208.400,278.000 208.220,278.000 208.000 C 278.000 207.780,278.360 207.600,278.800 207.600 C 279.240 207.600,279.600 207.420,279.600 207.200 C 279.600 206.980,279.960 206.800,280.400 206.800 C 280.840 206.800,281.200 206.620,281.200 206.400 C 281.200 206.180,281.472 206.000,281.805 206.000 C 282.138 206.000,282.768 205.820,283.205 205.600 C 283.642 205.380,284.358 205.020,284.795 204.800 C 285.232 204.580,285.862 204.400,286.195 204.400 C 286.528 204.400,286.800 204.220,286.800 204.000 C 286.800 203.780,287.160 203.600,287.600 203.600 C 288.040 203.600,288.400 203.420,288.400 203.200 C 288.400 202.980,288.760 202.800,289.200 202.800 C 289.640 202.800,290.000 202.620,290.000 202.400 C 290.000 202.180,290.253 202.000,290.562 202.000 C 290.871 202.000,291.906 201.614,292.862 201.143 C 293.818 200.672,294.960 200.151,295.400 199.985 C 301.242 197.785,302.654 195.601,299.200 194.104 C 298.320 193.723,297.600 193.274,297.600 193.106 C 297.600 192.938,297.328 192.800,296.995 192.800 C 296.662 192.800,296.032 192.620,295.595 192.400 C 295.158 192.180,294.442 191.820,294.005 191.600 C 293.568 191.380,292.938 191.200,292.605 191.200 C 292.272 191.200,292.000 191.020,292.000 190.800 C 292.000 190.580,291.651 190.400,291.224 190.400 C 290.797 190.400,290.336 190.220,290.200 190.000 C 290.064 189.780,289.603 189.600,289.176 189.600 C 288.749 189.600,288.400 189.420,288.400 189.200 C 288.400 188.980,288.040 188.800,287.600 188.800 C 287.160 188.800,286.800 188.620,286.800 188.400 C 286.800 188.180,286.440 188.000,286.000 188.000 C 285.560 188.000,285.200 187.820,285.200 187.600 C 285.200 187.380,284.840 187.200,284.400 187.200 C 283.960 187.200,283.600 187.020,283.600 186.800 C 283.600 186.580,283.240 186.400,282.800 186.400 C 282.360 186.400,282.000 186.220,282.000 186.000 C 282.000 185.780,281.460 185.600,280.800 185.600 C 280.140 185.600,279.600 185.420,279.600 185.200 C 279.600 184.980,279.240 184.800,278.800 184.800 C 278.360 184.800,278.000 184.620,278.000 184.400 C 278.000 184.180,277.640 184.000,277.200 184.000 C 276.760 184.000,276.400 183.820,276.400 183.600 C 276.400 183.380,276.040 183.200,275.600 183.200 C 275.160 183.200,274.800 183.020,274.800 182.800 C 274.800 182.580,274.440 182.400,274.000 182.400 C 273.560 182.400,273.200 182.220,273.200 182.000 C 273.200 181.780,272.750 181.600,272.200 181.600 C 271.650 181.600,271.200 181.420,271.200 181.200 C 271.200 180.980,270.840 180.800,270.400 180.800 C 269.960 180.800,269.600 180.620,269.600 180.400 C 269.600 180.180,269.060 180.000,268.400 180.000 C 267.740 180.000,267.200 179.820,267.200 179.600 C 267.200 179.380,266.840 179.200,266.400 179.200 C 265.960 179.200,265.600 179.020,265.600 178.800 C 265.600 178.580,265.240 178.400,264.800 178.400 C 264.360 178.400,264.000 178.220,264.000 178.000 C 264.000 177.780,263.640 177.600,263.200 177.600 C 262.760 177.600,262.400 177.420,262.400 177.200 C 262.400 176.980,262.040 176.800,261.600 176.800 C 261.160 176.800,260.800 176.652,260.800 176.472 C 260.800 176.292,259.315 175.463,257.500 174.631 C 255.685 173.799,253.140 172.597,251.844 171.959 C 250.548 171.322,249.243 170.800,248.944 170.800 C 248.645 170.800,248.400 170.620,248.400 170.400 C 248.400 170.180,248.040 170.000,247.600 170.000 C 247.160 170.000,246.800 169.820,246.800 169.600 C 246.800 169.380,246.440 169.200,246.000 169.200 C 245.560 169.200,245.200 169.020,245.200 168.800 C 245.200 168.580,244.737 168.400,244.171 168.400 C 243.606 168.400,242.864 168.121,242.523 167.780 C 242.182 167.440,241.385 167.057,240.752 166.930 C 240.118 166.804,239.600 166.543,239.600 166.350 C 239.600 166.158,239.240 166.000,238.800 166.000 C 238.360 166.000,238.000 165.820,238.000 165.600 C 238.000 165.380,237.585 165.200,237.078 165.200 C 236.147 165.200,233.200 162.835,233.200 162.088 C 233.200 161.359,230.320 155.600,229.956 155.600 C 229.760 155.600,229.600 155.150,229.600 154.600 C 229.600 154.050,229.420 153.600,229.200 153.600 C 228.980 153.600,228.800 153.251,228.800 152.824 C 228.800 152.397,228.620 151.936,228.400 151.800 C 228.180 151.664,228.000 151.113,228.000 150.576 C 228.000 150.039,227.854 149.600,227.675 149.600 C 227.496 149.600,227.102 148.970,226.800 148.200 C 226.498 147.430,226.104 146.800,225.925 146.800 C 225.746 146.800,225.600 146.350,225.600 145.800 C 225.600 145.250,225.420 144.800,225.200 144.800 C 224.980 144.800,224.800 144.440,224.800 144.000 C 224.800 143.560,224.620 143.200,224.400 143.200 C 224.180 143.200,224.000 142.840,224.000 142.400 C 224.000 141.960,223.820 141.600,223.600 141.600 C 223.380 141.600,223.200 141.240,223.200 140.800 C 223.200 140.360,223.020 140.000,222.800 140.000 C 222.580 140.000,222.400 139.460,222.400 138.800 C 222.400 138.140,222.220 137.600,222.000 137.600 C 221.780 137.600,221.600 137.240,221.600 136.800 C 221.600 136.360,221.420 136.000,221.200 136.000 C 220.980 136.000,220.800 135.640,220.800 135.200 C 220.800 134.760,220.620 134.400,220.400 134.400 C 220.180 134.400,220.000 134.040,220.000 133.600 C 220.000 133.160,219.820 132.800,219.600 132.800 C 219.380 132.800,219.200 132.451,219.200 132.024 C 219.200 131.597,219.020 131.136,218.800 131.000 C 218.580 130.864,218.400 130.403,218.400 129.976 C 218.400 129.549,218.220 129.200,218.000 129.200 C 217.780 129.200,217.600 128.964,217.600 128.675 C 217.600 128.184,216.454 125.471,215.585 123.905 C 215.373 123.523,215.200 122.938,215.200 122.605 C 215.200 122.272,215.020 122.000,214.800 122.000 C 214.580 122.000,214.400 121.640,214.400 121.200 C 214.400 120.760,214.220 120.400,214.000 120.400 C 213.780 120.400,213.600 120.040,213.600 119.600 C 213.600 119.160,213.420 118.800,213.200 118.800 C 212.980 118.800,212.800 118.440,212.800 118.000 C 212.800 117.560,212.620 117.200,212.400 117.200 C 212.180 117.200,212.000 116.840,212.000 116.400 C 212.000 115.960,211.820 115.600,211.600 115.600 C 211.380 115.600,211.198 115.285,211.195 114.900 C 211.193 114.515,210.743 113.417,210.195 112.459 C 209.648 111.502,209.200 110.467,209.200 110.159 C 209.200 109.852,209.020 109.600,208.800 109.600 C 208.580 109.600,208.400 109.240,208.400 108.800 C 208.400 108.360,208.220 108.000,208.000 108.000 C 207.780 108.000,207.600 107.640,207.600 107.200 C 207.600 106.760,207.420 106.400,207.200 106.400 C 206.980 106.400,206.800 106.040,206.800 105.600 C 206.800 105.160,206.620 104.800,206.400 104.800 C 206.180 104.800,206.000 104.476,206.000 104.080 C 206.000 103.186,205.106 101.207,204.700 101.203 C 204.535 101.201,204.400 100.851,204.400 100.424 C 204.400 99.997,204.220 99.536,204.000 99.400 C 203.780 99.264,203.600 98.868,203.600 98.520 C 203.600 97.965,202.552 96.847,202.000 96.813 C 201.890 96.806,201.305 97.227,200.700 97.747 " stroke="none" fill="#00f6ff" fill-rule="evenodd"></path>
                </g>
                </svg>