<svg class="customSvg" xmlns="http://www.w3.org/2000/svg" xmlns:xlink="http://www.w3.org/1999/xlink" width="24" height="24" viewBox="0, 0, 400,245.03311258278146" version="1.1">
    <g id="svgg">
    <path id="path0" d="M193.444 18.014 C 193.275 18.205,193.137 18.477,193.137 18.617 C 193.137 18.758,192.972 18.873,192.770 18.873 C 192.567 18.873,192.402 19.038,192.402 19.240 C 192.402 19.442,192.237 19.608,192.034 19.608 C 191.832 19.608,191.667 19.773,191.667 19.975 C 191.667 20.178,191.556 20.343,191.422 20.343 C 191.287 20.343,191.176 20.619,191.176 20.956 C 191.176 21.337,191.038 21.569,190.809 21.569 C 190.607 21.569,190.441 21.734,190.441 21.936 C 190.441 22.138,190.322 22.304,190.177 22.304 C 189.849 22.304,188.480 23.651,188.480 23.975 C 188.480 24.105,188.315 24.276,188.113 24.353 C 187.911 24.431,187.745 24.718,187.745 24.992 C 187.745 25.271,187.584 25.490,187.377 25.490 C 187.175 25.490,187.009 25.628,187.007 25.797 C 187.006 25.965,186.566 26.489,186.029 26.961 C 185.493 27.433,185.053 28.020,185.051 28.265 C 185.049 28.757,184.498 29.412,184.086 29.412 C 183.942 29.412,183.824 29.577,183.824 29.779 C 183.824 29.982,183.658 30.147,183.456 30.147 C 183.254 30.147,183.088 30.312,183.088 30.515 C 183.088 30.717,182.963 30.882,182.809 30.882 C 182.397 30.882,181.879 31.659,181.871 32.292 C 181.866 32.615,181.711 32.843,181.495 32.843 C 181.293 32.843,181.127 33.009,181.127 33.211 C 181.127 33.413,181.009 33.578,180.865 33.578 C 180.526 33.578,179.902 34.202,179.902 34.541 C 179.902 34.686,179.737 34.804,179.534 34.804 C 179.332 34.804,179.167 34.969,179.167 35.172 C 179.167 35.374,179.001 35.539,178.799 35.539 C 178.595 35.539,178.431 35.757,178.431 36.028 C 178.431 36.304,177.741 37.196,176.838 38.086 C 175.880 39.030,175.245 39.861,175.245 40.171 C 175.245 40.466,175.088 40.686,174.877 40.686 C 174.675 40.686,174.510 40.852,174.510 41.054 C 174.510 41.256,174.344 41.422,174.142 41.422 C 173.940 41.422,173.775 41.540,173.775 41.684 C 173.775 42.024,173.151 42.647,172.812 42.647 C 172.667 42.647,172.549 42.801,172.549 42.988 C 172.549 43.176,172.384 43.393,172.181 43.471 C 171.979 43.549,171.814 43.786,171.814 43.999 C 171.814 44.212,171.538 44.642,171.201 44.954 C 170.864 45.266,170.588 45.647,170.588 45.800 C 170.588 45.953,170.423 46.078,170.221 46.078 C 170.018 46.078,169.853 46.244,169.853 46.446 C 169.853 46.648,169.715 46.815,169.547 46.816 C 169.230 46.818,168.627 47.893,168.627 48.456 C 168.627 48.631,168.509 48.775,168.363 48.775 C 168.020 48.775,166.667 50.128,166.667 50.471 C 166.667 50.617,166.501 50.735,166.299 50.735 C 166.070 50.735,165.931 50.967,165.931 51.348 C 165.931 51.729,165.792 51.961,165.564 51.961 C 165.362 51.961,165.196 52.067,165.196 52.197 C 165.196 52.518,163.806 53.922,163.489 53.922 C 163.349 53.922,163.235 54.028,163.235 54.158 C 163.235 54.916,161.755 55.882,160.594 55.882 C 159.930 55.882,159.198 56.041,158.932 56.242 C 158.670 56.440,157.929 56.606,157.284 56.610 C 156.474 56.615,156.069 56.731,155.971 56.985 C 155.872 57.243,155.471 57.353,154.631 57.353 C 153.971 57.353,153.431 57.452,153.431 57.573 C 153.431 57.694,152.659 57.871,151.716 57.966 C 150.772 58.060,150.000 58.237,150.000 58.358 C 150.000 58.479,149.445 58.578,148.767 58.578 C 147.897 58.578,147.492 58.687,147.393 58.946 C 147.289 59.216,146.864 59.314,145.799 59.314 C 144.735 59.314,144.310 59.412,144.206 59.681 C 144.105 59.945,143.692 60.049,142.743 60.049 C 142.016 60.049,141.422 60.159,141.422 60.294 C 141.422 60.429,140.815 60.539,140.074 60.539 C 139.039 60.539,138.725 60.625,138.725 60.907 C 138.725 61.196,138.385 61.275,137.132 61.275 C 135.880 61.275,135.539 61.353,135.539 61.642 C 135.539 61.924,135.226 62.010,134.191 62.010 C 133.450 62.010,132.843 62.120,132.843 62.255 C 132.843 62.390,132.288 62.500,131.610 62.500 C 130.740 62.500,130.335 62.608,130.236 62.868 C 130.131 63.141,129.694 63.235,128.528 63.235 C 127.298 63.235,126.961 63.314,126.961 63.603 C 126.961 63.885,126.648 63.971,125.613 63.971 C 124.578 63.971,124.265 64.056,124.265 64.338 C 124.265 64.620,123.953 64.706,122.931 64.706 C 122.198 64.706,121.529 64.816,121.446 64.951 C 121.363 65.086,120.636 65.196,119.831 65.196 C 118.756 65.196,118.330 65.294,118.226 65.564 C 118.127 65.821,117.725 65.931,116.886 65.931 L 115.686 65.931 115.686 67.157 C 115.686 67.831,115.797 68.382,115.931 68.382 C 116.066 68.382,116.176 68.827,116.176 69.370 C 116.176 70.023,116.301 70.406,116.544 70.500 C 116.784 70.592,116.912 70.973,116.912 71.595 C 116.912 72.280,117.016 72.549,117.279 72.549 C 117.557 72.549,117.647 72.847,117.647 73.760 C 117.647 74.426,117.757 75.039,117.892 75.123 C 118.027 75.206,118.137 75.657,118.137 76.125 C 118.137 76.656,118.276 77.029,118.505 77.117 C 118.745 77.209,118.873 77.590,118.873 78.212 C 118.873 78.897,118.976 79.167,119.240 79.167 C 119.518 79.167,119.608 79.466,119.608 80.392 C 119.608 81.066,119.718 81.618,119.853 81.618 C 119.988 81.618,120.098 81.996,120.098 82.458 C 120.098 82.920,120.263 83.464,120.466 83.666 C 120.668 83.868,120.833 84.428,120.833 84.909 C 120.833 85.524,120.943 85.784,121.201 85.784 C 121.467 85.784,121.569 86.057,121.569 86.765 C 121.569 87.473,121.671 87.745,121.936 87.745 C 122.219 87.745,122.304 88.058,122.304 89.093 C 122.304 89.835,122.414 90.441,122.549 90.441 C 122.684 90.441,122.794 90.882,122.794 91.422 C 122.794 92.130,122.896 92.402,123.162 92.402 C 123.427 92.402,123.529 92.674,123.529 93.382 C 123.529 94.090,123.632 94.363,123.897 94.363 C 124.162 94.363,124.265 94.633,124.265 95.329 C 124.265 95.860,124.375 96.363,124.510 96.446 C 124.645 96.529,124.755 97.091,124.755 97.694 C 124.755 98.442,124.872 98.835,125.123 98.931 C 125.362 99.023,125.490 99.404,125.490 100.026 C 125.490 100.711,125.594 100.980,125.858 100.980 C 126.123 100.980,126.225 101.253,126.225 101.961 C 126.225 102.500,126.336 102.941,126.471 102.941 C 126.605 102.941,126.716 103.361,126.716 103.875 C 126.716 104.388,126.878 105.022,127.076 105.284 C 127.273 105.546,127.439 106.173,127.443 106.679 C 127.449 107.329,127.559 107.598,127.819 107.598 C 128.084 107.598,128.186 107.870,128.186 108.578 C 128.186 109.286,128.288 109.559,128.554 109.559 C 128.819 109.559,128.922 109.831,128.922 110.539 C 128.922 111.078,129.032 111.520,129.167 111.520 C 129.301 111.520,129.412 112.075,129.412 112.753 C 129.412 113.623,129.520 114.028,129.779 114.127 C 130.056 114.233,130.147 114.679,130.147 115.931 C 130.147 117.184,130.056 117.629,129.779 117.736 C 129.520 117.835,129.412 118.240,129.412 119.110 C 129.412 119.788,129.301 120.343,129.167 120.343 C 129.032 120.343,128.922 120.784,128.922 121.324 C 128.922 122.032,128.819 122.304,128.554 122.304 C 128.288 122.304,128.186 122.576,128.186 123.284 C 128.186 123.992,128.084 124.265,127.819 124.265 C 127.554 124.265,127.451 124.535,127.451 125.225 C 127.451 125.753,127.327 126.226,127.175 126.277 C 127.023 126.327,126.843 126.943,126.776 127.645 C 126.709 128.347,126.557 128.922,126.439 128.922 C 126.322 128.922,126.225 129.363,126.225 129.902 C 126.225 130.610,126.123 130.882,125.858 130.882 C 125.594 130.882,125.490 131.152,125.490 131.837 C 125.490 132.459,125.362 132.840,125.123 132.932 C 124.893 133.020,124.755 133.394,124.755 133.924 C 124.755 134.392,124.645 134.843,124.510 134.926 C 124.375 135.010,124.265 135.623,124.265 136.289 C 124.265 137.202,124.174 137.500,123.897 137.500 C 123.632 137.500,123.529 137.772,123.529 138.480 C 123.529 139.188,123.427 139.461,123.162 139.461 C 122.896 139.461,122.794 139.733,122.794 140.441 C 122.794 140.980,122.684 141.422,122.549 141.422 C 122.414 141.422,122.304 141.906,122.304 142.498 C 122.304 143.229,122.186 143.620,121.936 143.716 C 121.684 143.813,121.569 144.207,121.569 144.968 C 121.569 145.792,121.474 146.078,121.201 146.078 C 120.943 146.078,120.833 146.339,120.833 146.954 C 120.833 147.435,120.668 147.995,120.466 148.197 C 120.263 148.399,120.098 148.881,120.098 149.268 C 120.098 149.655,119.988 150.039,119.853 150.123 C 119.718 150.206,119.608 150.767,119.608 151.370 C 119.608 152.118,119.491 152.511,119.240 152.607 C 119.003 152.698,118.873 153.078,118.873 153.676 C 118.873 154.275,118.742 154.654,118.505 154.745 C 118.274 154.834,118.137 155.209,118.137 155.752 C 118.137 156.228,118.027 156.618,117.892 156.618 C 117.757 156.618,117.647 157.062,117.647 157.606 C 117.647 158.258,117.522 158.642,117.279 158.735 C 117.022 158.834,116.912 159.235,116.912 160.075 C 116.912 160.978,116.821 161.275,116.544 161.275 C 116.280 161.275,116.176 161.545,116.176 162.240 C 116.176 162.772,116.066 163.275,115.931 163.358 C 115.797 163.441,115.686 163.889,115.686 164.353 C 115.686 164.817,115.797 165.196,115.931 165.196 C 116.066 165.196,116.176 165.362,116.176 165.564 C 116.176 165.847,116.492 165.931,117.542 165.931 C 118.429 165.931,119.036 166.060,119.275 166.299 C 119.512 166.536,120.117 166.667,120.973 166.667 C 121.705 166.667,122.304 166.777,122.304 166.912 C 122.304 167.047,122.844 167.157,123.503 167.157 C 124.343 167.157,124.745 167.267,124.844 167.525 C 124.949 167.799,125.389 167.892,126.585 167.892 C 127.845 167.892,128.186 167.971,128.186 168.260 C 128.186 168.541,128.497 168.627,129.508 168.627 C 130.457 168.627,130.870 168.731,130.971 168.995 C 131.071 169.254,131.475 169.363,132.345 169.363 C 133.023 169.363,133.578 169.473,133.578 169.608 C 133.578 169.746,134.273 169.853,135.172 169.853 C 136.424 169.853,136.765 169.931,136.765 170.221 C 136.765 170.502,137.075 170.588,138.087 170.588 C 139.035 170.588,139.448 170.692,139.549 170.956 C 139.649 171.214,140.052 171.324,140.909 171.324 C 141.580 171.324,142.196 171.434,142.279 171.569 C 142.363 171.703,143.086 171.814,143.887 171.814 C 145.018 171.814,145.343 171.896,145.343 172.181 C 145.343 172.463,145.653 172.549,146.665 172.549 C 147.614 172.549,148.027 172.653,148.128 172.917 C 148.227 173.175,148.630 173.284,149.488 173.284 C 150.158 173.284,150.775 173.395,150.858 173.529 C 150.941 173.664,151.665 173.775,152.465 173.775 C 153.596 173.775,153.922 173.857,153.922 174.142 C 153.922 174.424,154.232 174.510,155.243 174.510 C 156.192 174.510,156.605 174.614,156.706 174.877 C 156.812 175.152,157.251 175.245,158.448 175.245 C 159.708 175.245,160.049 175.323,160.049 175.613 C 160.049 175.891,160.349 175.980,161.275 175.980 C 161.949 175.980,162.500 176.091,162.500 176.225 C 162.500 176.360,162.665 176.471,162.868 176.471 C 163.081 176.471,163.235 176.693,163.235 176.999 C 163.235 177.296,163.664 177.934,164.216 178.460 C 164.755 178.972,165.196 179.507,165.196 179.647 C 165.196 179.787,165.362 179.902,165.564 179.902 C 165.766 179.902,165.931 180.012,165.931 180.147 C 165.931 180.282,166.097 180.392,166.299 180.392 C 166.531 180.392,166.667 180.626,166.667 181.024 C 166.667 181.656,167.844 183.088,168.363 183.088 C 168.509 183.088,168.627 183.254,168.627 183.456 C 168.627 183.658,168.726 183.824,168.846 183.824 C 168.966 183.824,169.134 184.099,169.218 184.436 C 169.303 184.773,169.480 185.049,169.613 185.049 C 169.745 185.049,169.853 185.214,169.853 185.417 C 169.853 185.619,170.018 185.784,170.221 185.784 C 170.423 185.784,170.588 185.891,170.588 186.021 C 170.588 186.341,171.979 187.745,172.296 187.745 C 172.435 187.745,172.549 187.971,172.549 188.247 C 172.549 188.523,172.825 189.004,173.162 189.317 C 173.499 189.629,173.775 190.010,173.775 190.163 C 173.775 190.316,173.940 190.441,174.142 190.441 C 174.344 190.441,174.510 190.607,174.510 190.809 C 174.510 191.011,174.628 191.176,174.772 191.176 C 175.178 191.176,175.735 191.829,175.735 192.304 C 175.735 192.539,176.342 193.304,177.083 194.005 C 177.825 194.707,178.431 195.405,178.431 195.557 C 178.431 195.709,178.597 195.833,178.799 195.833 C 179.028 195.833,179.167 196.065,179.167 196.446 C 179.167 196.827,179.306 197.059,179.534 197.059 C 179.737 197.059,179.902 197.177,179.902 197.321 C 179.902 197.661,180.526 198.284,180.865 198.284 C 181.009 198.284,181.127 198.450,181.127 198.652 C 181.127 198.854,181.293 199.020,181.495 199.020 C 181.707 199.020,181.863 199.241,181.863 199.543 C 181.863 199.831,182.138 200.322,182.475 200.634 C 182.813 200.947,183.088 201.318,183.088 201.459 C 183.088 201.600,183.254 201.716,183.456 201.716 C 183.658 201.716,183.824 201.881,183.824 202.083 C 183.824 202.286,183.942 202.451,184.086 202.451 C 184.501 202.451,185.049 203.108,185.049 203.604 C 185.049 204.067,185.839 204.902,186.277 204.902 C 186.411 204.902,186.520 205.067,186.520 205.270 C 186.520 205.472,186.630 205.637,186.765 205.637 C 186.900 205.637,187.010 205.803,187.010 206.005 C 187.010 206.207,187.175 206.373,187.377 206.373 C 187.580 206.373,187.745 206.538,187.745 206.740 C 187.745 206.942,187.911 207.108,188.113 207.108 C 188.322 207.108,188.480 207.328,188.480 207.617 C 188.480 208.146,189.715 209.559,190.177 209.559 C 190.322 209.559,190.441 209.724,190.441 209.926 C 190.441 210.129,190.607 210.294,190.809 210.294 C 191.038 210.294,191.176 210.526,191.176 210.907 C 191.176 211.244,191.287 211.520,191.422 211.520 C 191.556 211.520,191.667 211.685,191.667 211.887 C 191.667 212.089,191.832 212.255,192.034 212.255 C 192.237 212.255,192.402 212.420,192.402 212.623 C 192.402 212.825,192.567 212.990,192.770 212.990 C 192.972 212.990,193.137 213.108,193.137 213.253 C 193.137 213.776,193.856 214.216,194.713 214.216 C 195.194 214.216,195.588 214.105,195.588 213.971 C 195.588 213.836,195.754 213.725,195.956 213.725 C 196.158 213.725,196.324 213.560,196.324 213.358 C 196.324 213.156,196.489 212.990,196.691 212.990 C 196.893 212.990,197.059 212.837,197.059 212.649 C 197.059 212.461,197.224 212.244,197.426 212.166 C 197.629 212.089,197.794 211.801,197.794 211.527 C 197.794 211.253,197.904 211.029,198.039 211.029 C 198.174 211.029,198.284 210.864,198.284 210.662 C 198.284 210.460,198.450 210.294,198.652 210.294 C 198.854 210.294,199.020 210.129,199.020 209.926 C 199.020 209.724,199.138 209.559,199.282 209.559 C 199.622 209.559,200.245 208.935,200.245 208.596 C 200.245 208.452,200.411 208.333,200.613 208.333 C 200.842 208.333,200.980 208.102,200.980 207.721 C 200.980 207.339,201.119 207.108,201.348 207.108 C 201.550 207.108,201.716 206.942,201.716 206.740 C 201.716 206.538,201.826 206.373,201.961 206.373 C 202.096 206.373,202.206 206.207,202.206 206.005 C 202.206 205.803,202.371 205.637,202.574 205.637 C 202.776 205.637,202.941 205.472,202.941 205.270 C 202.941 205.067,203.059 204.902,203.204 204.902 C 203.588 204.902,204.075 204.352,204.289 203.676 C 204.504 203.001,204.991 202.451,205.375 202.451 C 205.519 202.451,205.637 202.286,205.637 202.083 C 205.637 201.881,205.803 201.716,206.005 201.716 C 206.207 201.716,206.373 201.550,206.373 201.348 C 206.373 201.146,206.483 200.980,206.618 200.980 C 206.752 200.980,206.863 200.827,206.863 200.639 C 206.863 200.451,207.028 200.234,207.230 200.156 C 207.433 200.079,207.598 199.791,207.598 199.517 C 207.598 199.238,207.760 199.020,207.966 199.020 C 208.168 199.020,208.333 198.901,208.333 198.757 C 208.333 198.418,208.957 197.794,209.296 197.794 C 209.441 197.794,209.559 197.629,209.559 197.426 C 209.559 197.224,209.724 197.059,209.926 197.059 C 210.134 197.059,210.294 196.840,210.294 196.557 C 210.294 196.281,210.570 195.799,210.907 195.487 C 211.244 195.175,211.520 194.794,211.520 194.641 C 211.520 194.488,211.638 194.363,211.784 194.363 C 212.303 194.363,213.480 192.930,213.480 192.298 C 213.480 191.900,213.616 191.667,213.848 191.667 C 214.050 191.667,214.216 191.556,214.216 191.422 C 214.216 191.287,214.381 191.176,214.583 191.176 C 214.786 191.176,214.951 191.011,214.951 190.809 C 214.951 190.607,215.061 190.441,215.196 190.441 C 215.331 190.441,215.441 190.276,215.441 190.074 C 215.441 189.871,215.607 189.706,215.809 189.706 C 216.011 189.706,216.176 189.540,216.176 189.338 C 216.176 189.136,216.342 188.971,216.544 188.971 C 216.773 188.971,216.912 188.739,216.912 188.358 C 216.912 188.021,217.030 187.745,217.174 187.745 C 217.514 187.745,218.137 187.122,218.137 186.782 C 218.137 186.638,218.303 186.520,218.505 186.520 C 218.707 186.520,218.873 186.354,218.873 186.152 C 218.873 185.950,219.038 185.784,219.240 185.784 C 219.469 185.784,219.608 185.553,219.608 185.172 C 219.608 184.835,219.718 184.559,219.853 184.559 C 219.988 184.559,220.098 184.393,220.098 184.191 C 220.098 183.989,220.263 183.824,220.466 183.824 C 220.668 183.824,220.833 183.658,220.833 183.456 C 220.833 183.254,220.952 183.088,221.097 183.088 C 221.617 183.088,222.794 181.656,222.794 181.024 C 222.794 180.626,222.930 180.392,223.162 180.392 C 223.364 180.392,223.529 180.282,223.529 180.147 C 223.529 180.012,223.695 179.902,223.897 179.902 C 224.099 179.902,224.265 179.737,224.265 179.534 C 224.265 179.332,224.375 179.167,224.510 179.167 C 224.645 179.167,224.755 179.001,224.755 178.799 C 224.755 178.597,224.875 178.431,225.022 178.431 C 225.365 178.431,226.207 177.427,226.217 177.005 C 226.233 176.368,226.929 175.980,228.054 175.980 C 228.831 175.980,229.226 175.866,229.323 175.613 C 229.428 175.339,229.865 175.245,231.039 175.245 C 232.212 175.245,232.649 175.151,232.755 174.877 C 232.853 174.620,233.256 174.510,234.103 174.510 C 234.949 174.510,235.352 174.400,235.451 174.142 C 235.554 173.873,235.977 173.775,237.022 173.775 C 237.808 173.775,238.520 173.664,238.603 173.529 C 238.686 173.395,239.303 173.284,239.973 173.284 C 240.830 173.284,241.234 173.175,241.333 172.917 C 241.434 172.653,241.847 172.549,242.796 172.549 C 243.807 172.549,244.118 172.463,244.118 172.181 C 244.118 171.896,244.443 171.814,245.574 171.814 C 246.375 171.814,247.098 171.703,247.181 171.569 C 247.265 171.434,247.881 171.324,248.552 171.324 C 249.409 171.324,249.812 171.214,249.911 170.956 C 250.013 170.692,250.425 170.588,251.374 170.588 C 252.386 170.588,252.696 170.502,252.696 170.221 C 252.696 169.931,253.036 169.853,254.289 169.853 C 255.188 169.853,255.882 169.746,255.882 169.608 C 255.882 169.473,256.437 169.363,257.116 169.363 C 257.986 169.363,258.390 169.254,258.490 168.995 C 258.591 168.731,259.004 168.627,259.953 168.627 C 260.964 168.627,261.275 168.541,261.275 168.260 C 261.275 167.971,261.615 167.892,262.868 167.892 C 264.120 167.892,264.461 167.814,264.461 167.525 C 264.461 167.242,264.774 167.157,265.809 167.157 C 266.550 167.157,267.157 167.047,267.157 166.912 C 267.157 166.777,267.763 166.667,268.505 166.667 C 269.540 166.667,269.853 166.581,269.853 166.299 C 269.853 166.011,270.187 165.931,271.392 165.931 C 273.325 165.931,274.807 164.148,273.529 163.358 C 273.395 163.275,273.284 162.823,273.284 162.355 C 273.284 161.825,273.146 161.451,272.917 161.363 C 272.661 161.265,272.549 160.866,272.549 160.049 C 272.549 159.232,272.437 158.833,272.181 158.735 C 271.939 158.642,271.814 158.258,271.814 157.606 C 271.814 156.891,271.712 156.618,271.446 156.618 C 271.181 156.618,271.078 156.345,271.078 155.637 C 271.078 155.098,270.968 154.657,270.833 154.657 C 270.699 154.657,270.588 154.174,270.588 153.584 C 270.588 152.929,270.445 152.392,270.221 152.206 C 270.018 152.038,269.853 151.525,269.853 151.065 C 269.853 150.549,269.713 150.176,269.485 150.089 C 269.246 149.997,269.118 149.615,269.118 148.993 C 269.118 148.469,269.007 148.039,268.873 148.039 C 268.738 148.039,268.627 147.606,268.627 147.076 C 268.627 146.547,268.462 145.948,268.260 145.746 C 268.058 145.544,267.892 144.981,267.892 144.495 C 267.892 143.936,267.757 143.560,267.525 143.471 C 267.285 143.379,267.157 142.998,267.157 142.376 C 267.157 141.851,267.047 141.422,266.912 141.422 C 266.777 141.422,266.667 141.032,266.667 140.556 C 266.667 140.013,266.530 139.638,266.299 139.549 C 266.041 139.450,265.931 139.048,265.931 138.201 C 265.931 137.355,265.822 136.952,265.564 136.853 C 265.324 136.761,265.196 136.380,265.196 135.758 C 265.196 135.073,265.092 134.804,264.828 134.804 C 264.563 134.804,264.461 134.532,264.461 133.824 C 264.461 133.284,264.350 132.843,264.216 132.843 C 264.081 132.843,263.971 132.355,263.971 131.758 C 263.971 131.120,263.819 130.521,263.603 130.305 C 263.401 130.102,263.235 129.543,263.235 129.062 C 263.235 128.447,263.126 128.186,262.868 128.186 C 262.602 128.186,262.500 127.914,262.500 127.206 C 262.500 126.667,262.390 126.225,262.255 126.225 C 262.120 126.225,262.010 125.792,262.010 125.263 C 262.010 124.733,261.844 124.134,261.642 123.932 C 261.440 123.730,261.275 123.167,261.275 122.681 C 261.275 122.123,261.140 121.747,260.907 121.657 C 260.667 121.565,260.539 121.184,260.539 120.562 C 260.539 120.037,260.429 119.608,260.294 119.608 C 260.159 119.608,260.049 119.167,260.049 118.627 C 260.049 117.919,259.947 117.647,259.681 117.647 C 259.390 117.647,259.314 117.293,259.314 115.931 C 259.314 114.570,259.390 114.216,259.681 114.216 C 259.947 114.216,260.049 113.943,260.049 113.235 C 260.049 112.696,260.159 112.255,260.294 112.255 C 260.429 112.255,260.539 111.826,260.539 111.301 C 260.539 110.679,260.667 110.297,260.907 110.205 C 261.166 110.106,261.275 109.701,261.275 108.831 C 261.275 107.898,261.364 107.598,261.642 107.598 C 261.908 107.598,262.010 107.326,262.010 106.618 C 262.010 106.078,262.120 105.637,262.255 105.637 C 262.390 105.637,262.500 105.196,262.500 104.657 C 262.500 103.949,262.602 103.676,262.868 103.676 C 263.146 103.676,263.235 103.376,263.235 102.443 C 263.235 101.573,263.344 101.169,263.603 101.069 C 263.843 100.977,263.971 100.596,263.971 99.974 C 263.971 99.449,264.081 99.020,264.216 99.020 C 264.350 99.020,264.461 98.578,264.461 98.039 C 264.461 97.331,264.563 97.059,264.828 97.059 C 265.092 97.059,265.196 96.790,265.196 96.108 C 265.196 95.563,265.353 95.028,265.564 94.853 C 265.785 94.669,265.931 94.133,265.931 93.501 C 265.931 92.797,266.052 92.408,266.299 92.313 C 266.530 92.225,266.667 91.850,266.667 91.307 C 266.667 90.831,266.777 90.441,266.912 90.441 C 267.047 90.441,267.157 90.012,267.157 89.487 C 267.157 88.865,267.285 88.484,267.525 88.392 C 267.784 88.292,267.892 87.888,267.892 87.017 C 267.892 86.085,267.982 85.784,268.260 85.784 C 268.525 85.784,268.627 85.512,268.627 84.804 C 268.627 84.265,268.738 83.824,268.873 83.824 C 269.007 83.824,269.118 83.394,269.118 82.869 C 269.118 82.247,269.246 81.866,269.485 81.774 C 269.745 81.675,269.853 81.270,269.853 80.400 C 269.853 79.467,269.943 79.167,270.221 79.167 C 270.486 79.167,270.588 78.894,270.588 78.186 C 270.588 77.647,270.699 77.206,270.833 77.206 C 270.968 77.206,271.078 76.777,271.078 76.252 C 271.078 75.630,271.206 75.248,271.446 75.156 C 271.705 75.057,271.814 74.652,271.814 73.782 C 271.814 72.849,271.903 72.549,272.181 72.549 C 272.445 72.549,272.549 72.280,272.549 71.595 C 272.549 70.973,272.677 70.592,272.917 70.500 C 273.158 70.407,273.284 70.024,273.284 69.385 C 273.284 68.849,273.395 68.343,273.529 68.260 C 273.664 68.176,273.775 67.619,273.775 67.020 L 273.775 65.931 272.426 65.931 C 271.392 65.931,271.078 65.846,271.078 65.564 C 271.078 65.275,270.738 65.196,269.485 65.196 C 268.587 65.196,267.892 65.089,267.892 64.951 C 267.892 64.816,267.286 64.706,266.544 64.706 C 265.509 64.706,265.196 64.620,265.196 64.338 C 265.196 64.057,264.886 63.971,263.874 63.971 C 262.925 63.971,262.513 63.867,262.411 63.603 C 262.308 63.333,261.883 63.235,260.818 63.235 C 259.754 63.235,259.329 63.137,259.225 62.868 C 259.126 62.608,258.721 62.500,257.851 62.500 C 257.173 62.500,256.618 62.390,256.618 62.255 C 256.618 62.120,256.023 62.010,255.296 62.010 C 254.347 62.010,253.934 61.906,253.833 61.642 C 253.729 61.373,253.304 61.275,252.240 61.275 C 251.175 61.275,250.750 61.176,250.647 60.907 C 250.547 60.647,250.142 60.539,249.272 60.539 C 248.594 60.539,248.039 60.429,248.039 60.294 C 248.039 60.159,247.446 60.049,246.721 60.049 C 245.849 60.049,245.300 59.925,245.098 59.681 C 244.897 59.440,244.350 59.314,243.501 59.314 C 242.579 59.314,242.169 59.209,242.068 58.946 C 241.969 58.687,241.566 58.578,240.708 58.578 C 240.038 58.578,239.427 58.477,239.350 58.353 C 239.273 58.228,238.495 58.050,237.620 57.956 C 236.745 57.863,236.029 57.689,236.029 57.569 C 236.029 57.450,235.423 57.353,234.681 57.353 C 233.647 57.353,233.333 57.268,233.333 56.985 C 233.333 56.707,233.032 56.618,232.090 56.618 C 231.312 56.618,230.710 56.480,230.480 56.250 C 230.243 56.014,229.637 55.882,228.782 55.882 C 228.050 55.882,227.451 55.772,227.451 55.637 C 227.451 55.502,227.286 55.392,227.083 55.392 C 226.881 55.392,226.716 55.273,226.716 55.128 C 226.716 54.785,225.362 53.431,225.019 53.431 C 224.874 53.431,224.755 53.266,224.755 53.064 C 224.755 52.862,224.645 52.696,224.510 52.696 C 224.375 52.696,224.265 52.531,224.265 52.328 C 224.265 52.126,224.099 51.961,223.897 51.961 C 223.668 51.961,223.529 51.729,223.529 51.348 C 223.529 50.967,223.391 50.735,223.162 50.735 C 222.960 50.735,222.794 50.617,222.794 50.471 C 222.794 50.128,221.440 48.775,221.097 48.775 C 220.952 48.775,220.833 48.550,220.833 48.277 C 220.833 48.003,220.668 47.715,220.466 47.638 C 220.263 47.560,220.098 47.343,220.098 47.155 C 220.098 46.967,219.988 46.814,219.853 46.814 C 219.718 46.814,219.608 46.648,219.608 46.446 C 219.608 46.244,219.442 46.078,219.240 46.078 C 219.038 46.078,218.873 45.913,218.873 45.711 C 218.873 45.509,218.707 45.343,218.505 45.343 C 218.303 45.343,218.137 45.178,218.137 44.975 C 218.137 44.773,218.034 44.608,217.909 44.608 C 217.783 44.608,217.616 44.405,217.537 44.157 C 217.345 43.553,216.081 42.157,215.726 42.157 C 215.569 42.157,215.441 41.991,215.441 41.789 C 215.441 41.587,215.331 41.422,215.196 41.422 C 215.061 41.422,214.951 41.256,214.951 41.054 C 214.951 40.852,214.786 40.686,214.583 40.686 C 214.355 40.686,214.216 40.455,214.216 40.074 C 214.216 39.692,214.077 39.461,213.848 39.461 C 213.646 39.461,213.480 39.342,213.480 39.197 C 213.480 38.854,212.127 37.500,211.784 37.500 C 211.638 37.500,211.520 37.335,211.520 37.132 C 211.520 36.930,211.421 36.765,211.301 36.765 C 211.181 36.765,211.013 36.489,210.929 36.152 C 210.844 35.815,210.667 35.539,210.535 35.539 C 210.402 35.539,210.294 35.374,210.294 35.172 C 210.294 34.969,210.129 34.804,209.926 34.804 C 209.724 34.804,209.559 34.638,209.559 34.436 C 209.559 34.234,209.441 34.069,209.296 34.069 C 208.957 34.069,208.333 33.445,208.333 33.106 C 208.333 32.961,208.168 32.843,207.966 32.843 C 207.743 32.843,207.598 32.615,207.598 32.265 C 207.598 31.934,207.336 31.489,206.985 31.226 C 206.648 30.973,206.373 30.627,206.373 30.457 C 206.373 30.286,206.207 30.147,206.005 30.147 C 205.803 30.147,205.637 29.982,205.637 29.779 C 205.637 29.577,205.519 29.412,205.375 29.412 C 204.992 29.412,204.412 28.770,204.412 28.347 C 204.412 27.934,202.836 26.225,202.455 26.225 C 202.318 26.225,202.206 26.060,202.206 25.858 C 202.206 25.656,202.108 25.490,201.987 25.490 C 201.867 25.490,201.700 25.214,201.615 24.877 C 201.530 24.540,201.353 24.265,201.221 24.265 C 201.089 24.265,200.980 24.099,200.980 23.897 C 200.980 23.695,200.815 23.529,200.613 23.529 C 200.411 23.529,200.245 23.411,200.245 23.267 C 200.245 22.927,199.622 22.304,199.282 22.304 C 199.138 22.304,199.020 22.138,199.020 21.936 C 199.020 21.734,198.854 21.569,198.652 21.569 C 198.440 21.569,198.284 21.347,198.284 21.045 C 198.284 20.757,198.009 20.266,197.672 19.954 C 197.335 19.642,197.059 19.271,197.059 19.129 C 197.059 18.988,196.893 18.873,196.691 18.873 C 196.489 18.873,196.324 18.707,196.324 18.505 C 196.324 18.303,196.158 18.137,195.956 18.137 C 195.754 18.137,195.588 18.027,195.588 17.892 C 195.588 17.517,193.791 17.619,193.444 18.014 " stroke="none" fill="#8700ff" fill-rule="evenodd"></path><path id="path1" d="M193.444 18.014 C 193.275 18.205,193.137 18.477,193.137 18.617 C 193.137 18.758,192.972 18.873,192.770 18.873 C 192.567 18.873,192.402 19.038,192.402 19.240 C 192.402 19.442,192.237 19.608,192.034 19.608 C 191.832 19.608,191.667 19.773,191.667 19.975 C 191.667 20.178,191.556 20.343,191.422 20.343 C 191.287 20.343,191.176 20.619,191.176 20.956 C 191.176 21.337,191.038 21.569,190.809 21.569 C 190.607 21.569,190.441 21.734,190.441 21.936 C 190.441 22.138,190.322 22.304,190.177 22.304 C 189.849 22.304,188.480 23.651,188.480 23.975 C 188.480 24.105,188.315 24.276,188.113 24.353 C 187.911 24.431,187.745 24.718,187.745 24.992 C 187.745 25.271,187.584 25.490,187.377 25.490 C 187.175 25.490,187.009 25.628,187.007 25.797 C 187.006 25.965,186.566 26.489,186.029 26.961 C 185.493 27.433,185.053 28.020,185.051 28.265 C 185.049 28.757,184.498 29.412,184.086 29.412 C 183.942 29.412,183.824 29.577,183.824 29.779 C 183.824 29.982,183.658 30.147,183.456 30.147 C 183.254 30.147,183.088 30.312,183.088 30.515 C 183.088 30.717,182.963 30.882,182.809 30.882 C 182.397 30.882,181.879 31.659,181.871 32.292 C 181.866 32.615,181.711 32.843,181.495 32.843 C 181.293 32.843,181.127 33.009,181.127 33.211 C 181.127 33.413,181.009 33.578,180.865 33.578 C 180.526 33.578,179.902 34.202,179.902 34.541 C 179.902 34.686,179.737 34.804,179.534 34.804 C 179.332 34.804,179.167 34.969,179.167 35.172 C 179.167 35.374,179.001 35.539,178.799 35.539 C 178.595 35.539,178.431 35.757,178.431 36.028 C 178.431 36.304,177.741 37.196,176.838 38.086 C 175.880 39.030,175.245 39.861,175.245 40.171 C 175.245 40.466,175.088 40.686,174.877 40.686 C 174.675 40.686,174.510 40.852,174.510 41.054 C 174.510 41.256,174.344 41.422,174.142 41.422 C 173.940 41.422,173.775 41.540,173.775 41.684 C 173.775 42.024,173.151 42.647,172.812 42.647 C 172.667 42.647,172.549 42.801,172.549 42.988 C 172.549 43.176,172.384 43.393,172.181 43.471 C 171.979 43.549,171.814 43.786,171.814 43.999 C 171.814 44.212,171.538 44.642,171.201 44.954 C 170.864 45.266,170.588 45.647,170.588 45.800 C 170.588 45.953,170.423 46.078,170.221 46.078 C 170.018 46.078,169.853 46.244,169.853 46.446 C 169.853 46.648,169.715 46.815,169.547 46.816 C 169.230 46.818,168.627 47.893,168.627 48.456 C 168.627 48.631,168.509 48.775,168.363 48.775 C 168.020 48.775,166.667 50.128,166.667 50.471 C 166.667 50.617,166.501 50.735,166.299 50.735 C 166.070 50.735,165.931 50.967,165.931 51.348 C 165.931 51.729,165.792 51.961,165.564 51.961 C 165.362 51.961,165.196 52.067,165.196 52.197 C 165.196 52.518,163.806 53.922,163.489 53.922 C 163.349 53.922,163.235 54.028,163.235 54.158 C 163.235 54.916,161.755 55.882,160.594 55.882 C 159.930 55.882,159.198 56.041,158.932 56.242 C 158.670 56.440,157.929 56.606,157.284 56.610 C 156.474 56.615,156.069 56.731,155.971 56.985 C 155.872 57.243,155.471 57.353,154.631 57.353 C 153.971 57.353,153.431 57.452,153.431 57.573 C 153.431 57.694,152.659 57.871,151.716 57.966 C 150.772 58.060,150.000 58.237,150.000 58.358 C 150.000 58.479,149.445 58.578,148.767 58.578 C 147.897 58.578,147.492 58.687,147.393 58.946 C 147.289 59.216,146.864 59.314,145.799 59.314 C 144.735 59.314,144.310 59.412,144.206 59.681 C 144.105 59.945,143.692 60.049,142.743 60.049 C 142.016 60.049,141.422 60.159,141.422 60.294 C 141.422 60.429,140.815 60.539,140.074 60.539 C 139.039 60.539,138.725 60.625,138.725 60.907 C 138.725 61.196,138.385 61.275,137.132 61.275 C 135.880 61.275,135.539 61.353,135.539 61.642 C 135.539 61.924,135.226 62.010,134.191 62.010 C 133.450 62.010,132.843 62.120,132.843 62.255 C 132.843 62.390,132.288 62.500,131.610 62.500 C 130.740 62.500,130.335 62.608,130.236 62.868 C 130.131 63.141,129.694 63.235,128.528 63.235 C 127.298 63.235,126.961 63.314,126.961 63.603 C 126.961 63.885,126.648 63.971,125.613 63.971 C 124.578 63.971,124.265 64.056,124.265 64.338 C 124.265 64.620,123.953 64.706,122.931 64.706 C 122.198 64.706,121.529 64.816,121.446 64.951 C 121.363 65.086,120.636 65.196,119.831 65.196 C 118.756 65.196,118.330 65.294,118.226 65.564 C 118.127 65.821,117.725 65.931,116.886 65.931 L 115.686 65.931 115.686 67.157 C 115.686 67.831,115.797 68.382,115.931 68.382 C 116.066 68.382,116.176 68.827,116.176 69.370 C 116.176 70.023,116.301 70.406,116.544 70.500 C 116.784 70.592,116.912 70.973,116.912 71.595 C 116.912 72.280,117.016 72.549,117.279 72.549 C 117.557 72.549,117.647 72.847,117.647 73.760 C 117.647 74.426,117.757 75.039,117.892 75.123 C 118.027 75.206,118.137 75.657,118.137 76.125 C 118.137 76.656,118.276 77.029,118.505 77.117 C 118.745 77.209,118.873 77.590,118.873 78.212 C 118.873 78.897,118.976 79.167,119.240 79.167 C 119.518 79.167,119.608 79.466,119.608 80.392 C 119.608 81.066,119.718 81.618,119.853 81.618 C 119.988 81.618,120.098 81.996,120.098 82.458 C 120.098 82.920,120.263 83.464,120.466 83.666 C 120.668 83.868,120.833 84.428,120.833 84.909 C 120.833 85.524,120.943 85.784,121.201 85.784 C 121.467 85.784,121.569 86.057,121.569 86.765 C 121.569 87.473,121.671 87.745,121.936 87.745 C 122.219 87.745,122.304 88.058,122.304 89.093 C 122.304 89.835,122.414 90.441,122.549 90.441 C 122.684 90.441,122.794 90.882,122.794 91.422 C 122.794 92.130,122.896 92.402,123.162 92.402 C 123.427 92.402,123.529 92.674,123.529 93.382 C 123.529 94.090,123.632 94.363,123.897 94.363 C 124.162 94.363,124.265 94.633,124.265 95.329 C 124.265 95.860,124.375 96.363,124.510 96.446 C 124.645 96.529,124.755 97.091,124.755 97.694 C 124.755 98.442,124.872 98.835,125.123 98.931 C 125.362 99.023,125.490 99.404,125.490 100.026 C 125.490 100.711,125.594 100.980,125.858 100.980 C 126.123 100.980,126.225 101.253,126.225 101.961 C 126.225 102.500,126.336 102.941,126.471 102.941 C 126.605 102.941,126.716 103.361,126.716 103.875 C 126.716 104.388,126.878 105.022,127.076 105.284 C 127.273 105.546,127.439 106.173,127.443 106.679 C 127.449 107.329,127.559 107.598,127.819 107.598 C 128.084 107.598,128.186 107.870,128.186 108.578 C 128.186 109.286,128.288 109.559,128.554 109.559 C 128.819 109.559,128.922 109.831,128.922 110.539 C 128.922 111.078,129.032 111.520,129.167 111.520 C 129.301 111.520,129.412 112.075,129.412 112.753 C 129.412 113.623,129.520 114.028,129.779 114.127 C 130.056 114.233,130.147 114.679,130.147 115.931 C 130.147 117.184,130.056 117.629,129.779 117.736 C 129.520 117.835,129.412 118.240,129.412 119.110 C 129.412 119.788,129.301 120.343,129.167 120.343 C 129.032 120.343,128.922 120.784,128.922 121.324 C 128.922 122.032,128.819 122.304,128.554 122.304 C 128.288 122.304,128.186 122.576,128.186 123.284 C 128.186 123.992,128.084 124.265,127.819 124.265 C 127.554 124.265,127.451 124.535,127.451 125.225 C 127.451 125.753,127.327 126.226,127.175 126.277 C 127.023 126.327,126.843 126.943,126.776 127.645 C 126.709 128.347,126.557 128.922,126.439 128.922 C 126.322 128.922,126.225 129.363,126.225 129.902 C 126.225 130.610,126.123 130.882,125.858 130.882 C 125.594 130.882,125.490 131.152,125.490 131.837 C 125.490 132.459,125.362 132.840,125.123 132.932 C 124.893 133.020,124.755 133.394,124.755 133.924 C 124.755 134.392,124.645 134.843,124.510 134.926 C 124.375 135.010,124.265 135.623,124.265 136.289 C 124.265 137.202,124.174 137.500,123.897 137.500 C 123.632 137.500,123.529 137.772,123.529 138.480 C 123.529 139.188,123.427 139.461,123.162 139.461 C 122.896 139.461,122.794 139.733,122.794 140.441 C 122.794 140.980,122.684 141.422,122.549 141.422 C 122.414 141.422,122.304 141.906,122.304 142.498 C 122.304 143.229,122.186 143.620,121.936 143.716 C 121.684 143.813,121.569 144.207,121.569 144.968 C 121.569 145.792,121.474 146.078,121.201 146.078 C 120.943 146.078,120.833 146.339,120.833 146.954 C 120.833 147.435,120.668 147.995,120.466 148.197 C 120.263 148.399,120.098 148.881,120.098 149.268 C 120.098 149.655,119.988 150.039,119.853 150.123 C 119.718 150.206,119.608 150.767,119.608 151.370 C 119.608 152.118,119.491 152.511,119.240 152.607 C 119.003 152.698,118.873 153.078,118.873 153.676 C 118.873 154.275,118.742 154.654,118.505 154.745 C 118.274 154.834,118.137 155.209,118.137 155.752 C 118.137 156.228,118.027 156.618,117.892 156.618 C 117.757 156.618,117.647 157.062,117.647 157.606 C 117.647 158.258,117.522 158.642,117.279 158.735 C 117.022 158.834,116.912 159.235,116.912 160.075 C 116.912 160.978,116.821 161.275,116.544 161.275 C 116.280 161.275,116.176 161.545,116.176 162.240 C 116.176 162.772,116.066 163.275,115.931 163.358 C 115.797 163.441,115.686 163.889,115.686 164.353 C 115.686 164.817,115.797 165.196,115.931 165.196 C 116.066 165.196,116.176 165.362,116.176 165.564 C 116.176 165.847,116.492 165.931,117.542 165.931 C 118.429 165.931,119.036 166.060,119.275 166.299 C 119.512 166.536,120.117 166.667,120.973 166.667 C 121.705 166.667,122.304 166.777,122.304 166.912 C 122.304 167.047,122.844 167.157,123.503 167.157 C 124.343 167.157,124.745 167.267,124.844 167.525 C 124.949 167.799,125.389 167.892,126.585 167.892 C 127.845 167.892,128.186 167.971,128.186 168.260 C 128.186 168.541,128.497 168.627,129.508 168.627 C 130.457 168.627,130.870 168.731,130.971 168.995 C 131.071 169.254,131.475 169.363,132.345 169.363 C 133.023 169.363,133.578 169.473,133.578 169.608 C 133.578 169.746,134.273 169.853,135.172 169.853 C 136.424 169.853,136.765 169.931,136.765 170.221 C 136.765 170.502,137.075 170.588,138.087 170.588 C 139.035 170.588,139.448 170.692,139.549 170.956 C 139.649 171.214,140.052 171.324,140.909 171.324 C 141.580 171.324,142.196 171.434,142.279 171.569 C 142.363 171.703,143.086 171.814,143.887 171.814 C 145.018 171.814,145.343 171.896,145.343 172.181 C 145.343 172.463,145.653 172.549,146.665 172.549 C 147.614 172.549,148.027 172.653,148.128 172.917 C 148.227 173.175,148.630 173.284,149.488 173.284 C 150.158 173.284,150.775 173.395,150.858 173.529 C 150.941 173.664,151.665 173.775,152.465 173.775 C 153.596 173.775,153.922 173.857,153.922 174.142 C 153.922 174.424,154.232 174.510,155.243 174.510 C 156.192 174.510,156.605 174.614,156.706 174.877 C 156.812 175.152,157.251 175.245,158.448 175.245 C 159.708 175.245,160.049 175.323,160.049 175.613 C 160.049 175.891,160.349 175.980,161.275 175.980 C 161.949 175.980,162.500 176.091,162.500 176.225 C 162.500 176.360,162.665 176.471,162.868 176.471 C 163.081 176.471,163.235 176.693,163.235 176.999 C 163.235 177.296,163.664 177.934,164.216 178.460 C 164.755 178.972,165.196 179.507,165.196 179.647 C 165.196 179.787,165.362 179.902,165.564 179.902 C 165.766 179.902,165.931 180.012,165.931 180.147 C 165.931 180.282,166.097 180.392,166.299 180.392 C 166.531 180.392,166.667 180.626,166.667 181.024 C 166.667 181.656,167.844 183.088,168.363 183.088 C 168.509 183.088,168.627 183.254,168.627 183.456 C 168.627 183.658,168.726 183.824,168.846 183.824 C 168.966 183.824,169.134 184.099,169.218 184.436 C 169.303 184.773,169.480 185.049,169.613 185.049 C 169.745 185.049,169.853 185.214,169.853 185.417 C 169.853 185.619,170.018 185.784,170.221 185.784 C 170.423 185.784,170.588 185.891,170.588 186.021 C 170.588 186.341,171.979 187.745,172.296 187.745 C 172.435 187.745,172.549 187.971,172.549 188.247 C 172.549 188.523,172.825 189.004,173.162 189.317 C 173.499 189.629,173.775 190.010,173.775 190.163 C 173.775 190.316,173.940 190.441,174.142 190.441 C 174.344 190.441,174.510 190.607,174.510 190.809 C 174.510 191.011,174.628 191.176,174.772 191.176 C 175.178 191.176,175.735 191.829,175.735 192.304 C 175.735 192.539,176.342 193.304,177.083 194.005 C 177.825 194.707,178.431 195.405,178.431 195.557 C 178.431 195.709,178.597 195.833,178.799 195.833 C 179.028 195.833,179.167 196.065,179.167 196.446 C 179.167 196.827,179.306 197.059,179.534 197.059 C 179.737 197.059,179.902 197.177,179.902 197.321 C 179.902 197.661,180.526 198.284,180.865 198.284 C 181.009 198.284,181.127 198.450,181.127 198.652 C 181.127 198.854,181.293 199.020,181.495 199.020 C 181.707 199.020,181.863 199.241,181.863 199.543 C 181.863 199.831,182.138 200.322,182.475 200.634 C 182.813 200.947,183.088 201.318,183.088 201.459 C 183.088 201.600,183.254 201.716,183.456 201.716 C 183.658 201.716,183.824 201.881,183.824 202.083 C 183.824 202.286,183.942 202.451,184.086 202.451 C 184.501 202.451,185.049 203.108,185.049 203.604 C 185.049 204.067,185.839 204.902,186.277 204.902 C 186.411 204.902,186.520 205.067,186.520 205.270 C 186.520 205.472,186.630 205.637,186.765 205.637 C 186.900 205.637,187.010 205.803,187.010 206.005 C 187.010 206.207,187.175 206.373,187.377 206.373 C 187.580 206.373,187.745 206.538,187.745 206.740 C 187.745 206.942,187.911 207.108,188.113 207.108 C 188.322 207.108,188.480 207.328,188.480 207.617 C 188.480 208.146,189.715 209.559,190.177 209.559 C 190.322 209.559,190.441 209.724,190.441 209.926 C 190.441 210.129,190.607 210.294,190.809 210.294 C 191.038 210.294,191.176 210.526,191.176 210.907 C 191.176 211.244,191.287 211.520,191.422 211.520 C 191.556 211.520,191.667 211.685,191.667 211.887 C 191.667 212.089,191.832 212.255,192.034 212.255 C 192.237 212.255,192.402 212.420,192.402 212.623 C 192.402 212.825,192.567 212.990,192.770 212.990 C 192.972 212.990,193.137 213.108,193.137 213.253 C 193.137 213.776,193.856 214.216,194.713 214.216 C 195.194 214.216,195.588 214.105,195.588 213.971 C 195.588 213.836,195.754 213.725,195.956 213.725 C 196.158 213.725,196.324 213.560,196.324 213.358 C 196.324 213.156,196.489 212.990,196.691 212.990 C 196.893 212.990,197.059 212.837,197.059 212.649 C 197.059 212.461,197.224 212.244,197.426 212.166 C 197.629 212.089,197.794 211.801,197.794 211.527 C 197.794 211.253,197.904 211.029,198.039 211.029 C 198.174 211.029,198.284 210.864,198.284 210.662 C 198.284 210.460,198.450 210.294,198.652 210.294 C 198.854 210.294,199.020 210.129,199.020 209.926 C 199.020 209.724,199.138 209.559,199.282 209.559 C 199.622 209.559,200.245 208.935,200.245 208.596 C 200.245 208.452,200.411 208.333,200.613 208.333 C 200.842 208.333,200.980 208.102,200.980 207.721 C 200.980 207.339,201.119 207.108,201.348 207.108 C 201.550 207.108,201.716 206.942,201.716 206.740 C 201.716 206.538,201.826 206.373,201.961 206.373 C 202.096 206.373,202.206 206.207,202.206 206.005 C 202.206 205.803,202.371 205.637,202.574 205.637 C 202.776 205.637,202.941 205.472,202.941 205.270 C 202.941 205.067,203.059 204.902,203.204 204.902 C 203.588 204.902,204.075 204.352,204.289 203.676 C 204.504 203.001,204.991 202.451,205.375 202.451 C 205.519 202.451,205.637 202.286,205.637 202.083 C 205.637 201.881,205.803 201.716,206.005 201.716 C 206.207 201.716,206.373 201.550,206.373 201.348 C 206.373 201.146,206.483 200.980,206.618 200.980 C 206.752 200.980,206.863 200.827,206.863 200.639 C 206.863 200.451,207.028 200.234,207.230 200.156 C 207.433 200.079,207.598 199.791,207.598 199.517 C 207.598 199.238,207.760 199.020,207.966 199.020 C 208.168 199.020,208.333 198.901,208.333 198.757 C 208.333 198.418,208.957 197.794,209.296 197.794 C 209.441 197.794,209.559 197.629,209.559 197.426 C 209.559 197.224,209.724 197.059,209.926 197.059 C 210.134 197.059,210.294 196.840,210.294 196.557 C 210.294 196.281,210.570 195.799,210.907 195.487 C 211.244 195.175,211.520 194.794,211.520 194.641 C 211.520 194.488,211.638 194.363,211.784 194.363 C 212.303 194.363,213.480 192.930,213.480 192.298 C 213.480 191.900,213.616 191.667,213.848 191.667 C 214.050 191.667,214.216 191.556,214.216 191.422 C 214.216 191.287,214.381 191.176,214.583 191.176 C 214.786 191.176,214.951 191.011,214.951 190.809 C 214.951 190.607,215.061 190.441,215.196 190.441 C 215.331 190.441,215.441 190.276,215.441 190.074 C 215.441 189.871,215.607 189.706,215.809 189.706 C 216.011 189.706,216.176 189.540,216.176 189.338 C 216.176 189.136,216.342 188.971,216.544 188.971 C 216.773 188.971,216.912 188.739,216.912 188.358 C 216.912 188.021,217.030 187.745,217.174 187.745 C 217.514 187.745,218.137 187.122,218.137 186.782 C 218.137 186.638,218.303 186.520,218.505 186.520 C 218.707 186.520,218.873 186.354,218.873 186.152 C 218.873 185.950,219.038 185.784,219.240 185.784 C 219.469 185.784,219.608 185.553,219.608 185.172 C 219.608 184.835,219.718 184.559,219.853 184.559 C 219.988 184.559,220.098 184.393,220.098 184.191 C 220.098 183.989,220.263 183.824,220.466 183.824 C 220.668 183.824,220.833 183.658,220.833 183.456 C 220.833 183.254,220.952 183.088,221.097 183.088 C 221.617 183.088,222.794 181.656,222.794 181.024 C 222.794 180.626,222.930 180.392,223.162 180.392 C 223.364 180.392,223.529 180.282,223.529 180.147 C 223.529 180.012,223.695 179.902,223.897 179.902 C 224.099 179.902,224.265 179.737,224.265 179.534 C 224.265 179.332,224.375 179.167,224.510 179.167 C 224.645 179.167,224.755 179.001,224.755 178.799 C 224.755 178.597,224.875 178.431,225.022 178.431 C 225.365 178.431,226.207 177.427,226.217 177.005 C 226.233 176.368,226.929 175.980,228.054 175.980 C 228.831 175.980,229.226 175.866,229.323 175.613 C 229.428 175.339,229.865 175.245,231.039 175.245 C 232.212 175.245,232.649 175.151,232.755 174.877 C 232.853 174.620,233.256 174.510,234.103 174.510 C 234.949 174.510,235.352 174.400,235.451 174.142 C 235.554 173.873,235.977 173.775,237.022 173.775 C 237.808 173.775,238.520 173.664,238.603 173.529 C 238.686 173.395,239.303 173.284,239.973 173.284 C 240.830 173.284,241.234 173.175,241.333 172.917 C 241.434 172.653,241.847 172.549,242.796 172.549 C 243.807 172.549,244.118 172.463,244.118 172.181 C 244.118 171.896,244.443 171.814,245.574 171.814 C 246.375 171.814,247.098 171.703,247.181 171.569 C 247.265 171.434,247.881 171.324,248.552 171.324 C 249.409 171.324,249.812 171.214,249.911 170.956 C 250.013 170.692,250.425 170.588,251.374 170.588 C 252.386 170.588,252.696 170.502,252.696 170.221 C 252.696 169.931,253.036 169.853,254.289 169.853 C 255.188 169.853,255.882 169.746,255.882 169.608 C 255.882 169.473,256.437 169.363,257.116 169.363 C 257.986 169.363,258.390 169.254,258.490 168.995 C 258.591 168.731,259.004 168.627,259.953 168.627 C 260.964 168.627,261.275 168.541,261.275 168.260 C 261.275 167.971,261.615 167.892,262.868 167.892 C 264.120 167.892,264.461 167.814,264.461 167.525 C 264.461 167.242,264.774 167.157,265.809 167.157 C 266.550 167.157,267.157 167.047,267.157 166.912 C 267.157 166.777,267.763 166.667,268.505 166.667 C 269.540 166.667,269.853 166.581,269.853 166.299 C 269.853 166.011,270.187 165.931,271.392 165.931 C 273.325 165.931,274.807 164.148,273.529 163.358 C 273.395 163.275,273.284 162.823,273.284 162.355 C 273.284 161.825,273.146 161.451,272.917 161.363 C 272.661 161.265,272.549 160.866,272.549 160.049 C 272.549 159.232,272.437 158.833,272.181 158.735 C 271.939 158.642,271.814 158.258,271.814 157.606 C 271.814 156.891,271.712 156.618,271.446 156.618 C 271.181 156.618,271.078 156.345,271.078 155.637 C 271.078 155.098,270.968 154.657,270.833 154.657 C 270.699 154.657,270.588 154.174,270.588 153.584 C 270.588 152.929,270.445 152.392,270.221 152.206 C 270.018 152.038,269.853 151.525,269.853 151.065 C 269.853 150.549,269.713 150.176,269.485 150.089 C 269.246 149.997,269.118 149.615,269.118 148.993 C 269.118 148.469,269.007 148.039,268.873 148.039 C 268.738 148.039,268.627 147.606,268.627 147.076 C 268.627 146.547,268.462 145.948,268.260 145.746 C 268.058 145.544,267.892 144.981,267.892 144.495 C 267.892 143.936,267.757 143.560,267.525 143.471 C 267.285 143.379,267.157 142.998,267.157 142.376 C 267.157 141.851,267.047 141.422,266.912 141.422 C 266.777 141.422,266.667 141.032,266.667 140.556 C 266.667 140.013,266.530 139.638,266.299 139.549 C 266.041 139.450,265.931 139.048,265.931 138.201 C 265.931 137.355,265.822 136.952,265.564 136.853 C 265.324 136.761,265.196 136.380,265.196 135.758 C 265.196 135.073,265.092 134.804,264.828 134.804 C 264.563 134.804,264.461 134.532,264.461 133.824 C 264.461 133.284,264.350 132.843,264.216 132.843 C 264.081 132.843,263.971 132.355,263.971 131.758 C 263.971 131.120,263.819 130.521,263.603 130.305 C 263.401 130.102,263.235 129.543,263.235 129.062 C 263.235 128.447,263.126 128.186,262.868 128.186 C 262.602 128.186,262.500 127.914,262.500 127.206 C 262.500 126.667,262.390 126.225,262.255 126.225 C 262.120 126.225,262.010 125.792,262.010 125.263 C 262.010 124.733,261.844 124.134,261.642 123.932 C 261.440 123.730,261.275 123.167,261.275 122.681 C 261.275 122.123,261.140 121.747,260.907 121.657 C 260.667 121.565,260.539 121.184,260.539 120.562 C 260.539 120.037,260.429 119.608,260.294 119.608 C 260.159 119.608,260.049 119.167,260.049 118.627 C 260.049 117.919,259.947 117.647,259.681 117.647 C 259.390 117.647,259.314 117.293,259.314 115.931 C 259.314 114.570,259.390 114.216,259.681 114.216 C 259.947 114.216,260.049 113.943,260.049 113.235 C 260.049 112.696,260.159 112.255,260.294 112.255 C 260.429 112.255,260.539 111.826,260.539 111.301 C 260.539 110.679,260.667 110.297,260.907 110.205 C 261.166 110.106,261.275 109.701,261.275 108.831 C 261.275 107.898,261.364 107.598,261.642 107.598 C 261.908 107.598,262.010 107.326,262.010 106.618 C 262.010 106.078,262.120 105.637,262.255 105.637 C 262.390 105.637,262.500 105.196,262.500 104.657 C 262.500 103.949,262.602 103.676,262.868 103.676 C 263.146 103.676,263.235 103.376,263.235 102.443 C 263.235 101.573,263.344 101.169,263.603 101.069 C 263.843 100.977,263.971 100.596,263.971 99.974 C 263.971 99.449,264.081 99.020,264.216 99.020 C 264.350 99.020,264.461 98.578,264.461 98.039 C 264.461 97.331,264.563 97.059,264.828 97.059 C 265.092 97.059,265.196 96.790,265.196 96.108 C 265.196 95.563,265.353 95.028,265.564 94.853 C 265.785 94.669,265.931 94.133,265.931 93.501 C 265.931 92.797,266.052 92.408,266.299 92.313 C 266.530 92.225,266.667 91.850,266.667 91.307 C 266.667 90.831,266.777 90.441,266.912 90.441 C 267.047 90.441,267.157 90.012,267.157 89.487 C 267.157 88.865,267.285 88.484,267.525 88.392 C 267.784 88.292,267.892 87.888,267.892 87.017 C 267.892 86.085,267.982 85.784,268.260 85.784 C 268.525 85.784,268.627 85.512,268.627 84.804 C 268.627 84.265,268.738 83.824,268.873 83.824 C 269.007 83.824,269.118 83.394,269.118 82.869 C 269.118 82.247,269.246 81.866,269.485 81.774 C 269.745 81.675,269.853 81.270,269.853 80.400 C 269.853 79.467,269.943 79.167,270.221 79.167 C 270.486 79.167,270.588 78.894,270.588 78.186 C 270.588 77.647,270.699 77.206,270.833 77.206 C 270.968 77.206,271.078 76.777,271.078 76.252 C 271.078 75.630,271.206 75.248,271.446 75.156 C 271.705 75.057,271.814 74.652,271.814 73.782 C 271.814 72.849,271.903 72.549,272.181 72.549 C 272.445 72.549,272.549 72.280,272.549 71.595 C 272.549 70.973,272.677 70.592,272.917 70.500 C 273.158 70.407,273.284 70.024,273.284 69.385 C 273.284 68.849,273.395 68.343,273.529 68.260 C 273.664 68.176,273.775 67.619,273.775 67.020 L 273.775 65.931 272.426 65.931 C 271.392 65.931,271.078 65.846,271.078 65.564 C 271.078 65.275,270.738 65.196,269.485 65.196 C 268.587 65.196,267.892 65.089,267.892 64.951 C 267.892 64.816,267.286 64.706,266.544 64.706 C 265.509 64.706,265.196 64.620,265.196 64.338 C 265.196 64.057,264.886 63.971,263.874 63.971 C 262.925 63.971,262.513 63.867,262.411 63.603 C 262.308 63.333,261.883 63.235,260.818 63.235 C 259.754 63.235,259.329 63.137,259.225 62.868 C 259.126 62.608,258.721 62.500,257.851 62.500 C 257.173 62.500,256.618 62.390,256.618 62.255 C 256.618 62.120,256.023 62.010,255.296 62.010 C 254.347 62.010,253.934 61.906,253.833 61.642 C 253.729 61.373,253.304 61.275,252.240 61.275 C 251.175 61.275,250.750 61.176,250.647 60.907 C 250.547 60.647,250.142 60.539,249.272 60.539 C 248.594 60.539,248.039 60.429,248.039 60.294 C 248.039 60.159,247.446 60.049,246.721 60.049 C 245.849 60.049,245.300 59.925,245.098 59.681 C 244.897 59.440,244.350 59.314,243.501 59.314 C 242.579 59.314,242.169 59.209,242.068 58.946 C 241.969 58.687,241.566 58.578,240.708 58.578 C 240.038 58.578,239.427 58.477,239.350 58.353 C 239.273 58.228,238.495 58.050,237.620 57.956 C 236.745 57.863,236.029 57.689,236.029 57.569 C 236.029 57.450,235.423 57.353,234.681 57.353 C 233.647 57.353,233.333 57.268,233.333 56.985 C 233.333 56.707,233.032 56.618,232.090 56.618 C 231.312 56.618,230.710 56.480,230.480 56.250 C 230.243 56.014,229.637 55.882,228.782 55.882 C 228.050 55.882,227.451 55.772,227.451 55.637 C 227.451 55.502,227.286 55.392,227.083 55.392 C 226.881 55.392,226.716 55.273,226.716 55.128 C 226.716 54.785,225.362 53.431,225.019 53.431 C 224.874 53.431,224.755 53.266,224.755 53.064 C 224.755 52.862,224.645 52.696,224.510 52.696 C 224.375 52.696,224.265 52.531,224.265 52.328 C 224.265 52.126,224.099 51.961,223.897 51.961 C 223.668 51.961,223.529 51.729,223.529 51.348 C 223.529 50.967,223.391 50.735,223.162 50.735 C 222.960 50.735,222.794 50.617,222.794 50.471 C 222.794 50.128,221.440 48.775,221.097 48.775 C 220.952 48.775,220.833 48.550,220.833 48.277 C 220.833 48.003,220.668 47.715,220.466 47.638 C 220.263 47.560,220.098 47.343,220.098 47.155 C 220.098 46.967,219.988 46.814,219.853 46.814 C 219.718 46.814,219.608 46.648,219.608 46.446 C 219.608 46.244,219.442 46.078,219.240 46.078 C 219.038 46.078,218.873 45.913,218.873 45.711 C 218.873 45.509,218.707 45.343,218.505 45.343 C 218.303 45.343,218.137 45.178,218.137 44.975 C 218.137 44.773,218.034 44.608,217.909 44.608 C 217.783 44.608,217.616 44.405,217.537 44.157 C 217.345 43.553,216.081 42.157,215.726 42.157 C 215.569 42.157,215.441 41.991,215.441 41.789 C 215.441 41.587,215.331 41.422,215.196 41.422 C 215.061 41.422,214.951 41.256,214.951 41.054 C 214.951 40.852,214.786 40.686,214.583 40.686 C 214.355 40.686,214.216 40.455,214.216 40.074 C 214.216 39.692,214.077 39.461,213.848 39.461 C 213.646 39.461,213.480 39.342,213.480 39.197 C 213.480 38.854,212.127 37.500,211.784 37.500 C 211.638 37.500,211.520 37.335,211.520 37.132 C 211.520 36.930,211.421 36.765,211.301 36.765 C 211.181 36.765,211.013 36.489,210.929 36.152 C 210.844 35.815,210.667 35.539,210.535 35.539 C 210.402 35.539,210.294 35.374,210.294 35.172 C 210.294 34.969,210.129 34.804,209.926 34.804 C 209.724 34.804,209.559 34.638,209.559 34.436 C 209.559 34.234,209.441 34.069,209.296 34.069 C 208.957 34.069,208.333 33.445,208.333 33.106 C 208.333 32.961,208.168 32.843,207.966 32.843 C 207.743 32.843,207.598 32.615,207.598 32.265 C 207.598 31.934,207.336 31.489,206.985 31.226 C 206.648 30.973,206.373 30.627,206.373 30.457 C 206.373 30.286,206.207 30.147,206.005 30.147 C 205.803 30.147,205.637 29.982,205.637 29.779 C 205.637 29.577,205.519 29.412,205.375 29.412 C 204.992 29.412,204.412 28.770,204.412 28.347 C 204.412 27.934,202.836 26.225,202.455 26.225 C 202.318 26.225,202.206 26.060,202.206 25.858 C 202.206 25.656,202.108 25.490,201.987 25.490 C 201.867 25.490,201.700 25.214,201.615 24.877 C 201.530 24.540,201.353 24.265,201.221 24.265 C 201.089 24.265,200.980 24.099,200.980 23.897 C 200.980 23.695,200.815 23.529,200.613 23.529 C 200.411 23.529,200.245 23.411,200.245 23.267 C 200.245 22.927,199.622 22.304,199.282 22.304 C 199.138 22.304,199.020 22.138,199.020 21.936 C 199.020 21.734,198.854 21.569,198.652 21.569 C 198.440 21.569,198.284 21.347,198.284 21.045 C 198.284 20.757,198.009 20.266,197.672 19.954 C 197.335 19.642,197.059 19.271,197.059 19.129 C 197.059 18.988,196.893 18.873,196.691 18.873 C 196.489 18.873,196.324 18.707,196.324 18.505 C 196.324 18.303,196.158 18.137,195.956 18.137 C 195.754 18.137,195.588 18.027,195.588 17.892 C 195.588 17.517,193.791 17.619,193.444 18.014 " stroke="none" fill="#8700ff" fill-rule="evenodd"></path>
    </g>
    </svg>